<svg width="40" height="40" viewBox="0 0 50 51" fill="none" xmlns="http://www.w3.org/2000/svg">
<path d="M33.5938 15.2766V12.9264C33.5938 12.7109 33.418 12.5347 33.2031 12.5347H14.4531C14.2383 12.5347 14.0625 12.7109 14.0625 12.9264V15.2766C14.0625 15.4921 14.2383 15.6683 14.4531 15.6683H33.2031C33.418 15.6683 33.5938 15.4921 33.5938 15.2766ZM14.4531 19.5855C14.2383 19.5855 14.0625 19.7617 14.0625 19.9772V22.3274C14.0625 22.5429 14.2383 22.7191 14.4531 22.7191H23.4375C23.6523 22.7191 23.8281 22.5429 23.8281 22.3274V19.9772C23.8281 19.7617 23.6523 19.5855 23.4375 19.5855H14.4531ZM32.8125 25.2652C26.9873 25.2652 22.2656 30 22.2656 35.8414C22.2656 41.6828 26.9873 46.4176 32.8125 46.4176C38.6377 46.4176 43.3594 41.6828 43.3594 35.8414C43.3594 30 38.6377 25.2652 32.8125 25.2652ZM38.0615 41.105C36.6602 42.5103 34.7949 43.2839 32.8125 43.2839C30.8301 43.2839 28.9648 42.5103 27.5635 41.105C26.1621 39.6998 25.3906 37.8293 25.3906 35.8414C25.3906 33.8535 26.1621 31.9831 27.5635 30.5778C28.9648 29.1726 30.8301 28.3989 32.8125 28.3989C34.7949 28.3989 36.6602 29.1726 38.0615 30.5778C39.4629 31.9831 40.2344 33.8535 40.2344 35.8414C40.2344 37.8293 39.4629 39.6998 38.0615 41.105ZM37.1582 32.1202H34.9951C34.8682 32.1202 34.751 32.1789 34.6777 32.2818L31.5771 36.5808L30.4492 35.0188C30.4131 34.9684 30.3654 34.9274 30.3102 34.8992C30.2549 34.8711 30.1938 34.8567 30.1318 34.8573H27.9785C27.6611 34.8573 27.4756 35.2196 27.6611 35.4791L31.2646 40.4783C31.4209 40.6937 31.7383 40.6937 31.8945 40.4783L37.4707 32.742C37.6611 32.4825 37.4756 32.1202 37.1582 32.1202ZM21.4844 41.7171H10.1562V7.24658H37.5V24.0901C37.5 24.3056 37.6758 24.4818 37.8906 24.4818H40.625C40.8398 24.4818 41.0156 24.3056 41.0156 24.0901V5.28803C41.0156 4.42137 40.3174 3.72119 39.4531 3.72119H8.20312C7.33887 3.72119 6.64062 4.42137 6.64062 5.28803V43.6756C6.64062 44.5423 7.33887 45.2425 8.20312 45.2425H21.4844C21.6992 45.2425 21.875 45.0662 21.875 44.8508V42.1088C21.875 41.8933 21.6992 41.7171 21.4844 41.7171Z" fill="#FF8A00"/>
</svg>
