<svg width="45" height="42" viewBox="0 0 45 42" fill="none" xmlns="http://www.w3.org/2000/svg">
<path d="M31.8331 21.0001C37.5831 21.0001 42.2498 16.3334 42.2498 10.5834C42.2498 4.83341 37.5831 0.166748 31.8331 0.166748C26.0831 0.166748 21.4165 4.83341 21.4165 10.5834C21.4165 16.3334 26.0831 21.0001 31.8331 21.0001ZM43.1873 32.6667C42.3748 31.8334 41.354 31.4167 40.1665 31.4167H25.5831L21.2498 29.8959L21.9373 27.9376L25.5831 29.3334H31.4165C32.1456 29.3334 32.729 29.0417 33.2081 28.5626C33.6873 28.0834 33.9165 27.5001 33.9165 26.8542C33.9165 25.7292 33.3748 24.9584 32.2915 24.5209L17.1456 18.9167H13.0831V37.6667L27.6665 41.8334L44.3956 35.5834C44.4165 34.4792 43.9998 33.5001 43.1873 32.6667ZM8.91647 18.9167H0.549805V41.8334H8.91647V18.9167Z" fill="#FF8A00"/>
<ellipse cx="31.8335" cy="11.6251" rx="12.5" ry="12.4583" fill="#393E46"/>
<path fill-rule="evenodd" clip-rule="evenodd" d="M35.7397 5.99992H27.9272C27.72 5.99992 27.5213 6.08772 27.3748 6.244C27.2283 6.40028 27.146 6.61224 27.146 6.83325V16.8333C27.146 17.0543 27.2283 17.2662 27.3748 17.4225C27.5213 17.5788 27.72 17.6666 27.9272 17.6666H35.7397C35.9469 17.6666 36.1457 17.5788 36.2922 17.4225C36.4387 17.2662 36.521 17.0543 36.521 16.8333V6.83325C36.521 6.61224 36.4387 6.40028 36.2922 6.244C36.1457 6.08772 35.9469 5.99992 35.7397 5.99992ZM27.9272 4.33325C27.3056 4.33325 26.7095 4.59664 26.27 5.06549C25.8304 5.53433 25.5835 6.17021 25.5835 6.83325V16.8333C25.5835 17.4963 25.8304 18.1322 26.27 18.601C26.7095 19.0699 27.3056 19.3333 27.9272 19.3333H35.7397C36.3613 19.3333 36.9575 19.0699 37.397 18.601C37.8366 18.1322 38.0835 17.4963 38.0835 16.8333V6.83325C38.0835 6.17021 37.8366 5.53433 37.397 5.06549C36.9575 4.59664 36.3613 4.33325 35.7397 4.33325H27.9272Z" fill="#FF8A00"/>
<path d="M28.7085 7.66675H34.9585V9.33341H28.7085V7.66675ZM28.7085 11.0001H34.9585V12.6667H28.7085V11.0001ZM28.7085 14.3334H32.6147V16.0001H28.7085V14.3334Z" fill="#FF8A00"/>
</svg>
