<svg width="41" height="48" viewBox="0 0 41 48" fill="none" xmlns="http://www.w3.org/2000/svg">
<path d="M5.65625 47.4375H2.53125C1.90965 47.4375 1.31351 47.1906 0.873969 46.751C0.43443 46.3115 0.1875 45.7154 0.1875 45.0938V31.0312C0.1875 30.4096 0.43443 29.8135 0.873969 29.374C1.31351 28.9344 1.90965 28.6875 2.53125 28.6875H5.65625C6.27785 28.6875 6.87399 28.9344 7.31353 29.374C7.75307 29.8135 8 30.4096 8 31.0312V45.0938C8 45.7154 7.75307 46.3115 7.31353 46.751C6.87399 47.1906 6.27785 47.4375 5.65625 47.4375ZM27.5312 47.4375H24.4062C23.7846 47.4375 23.1885 47.1906 22.749 46.751C22.3094 46.3115 22.0625 45.7154 22.0625 45.0938V21.6562C22.0625 21.0346 22.3094 20.4385 22.749 19.999C23.1885 19.5594 23.7846 19.3125 24.4062 19.3125H27.5312C28.1529 19.3125 28.749 19.5594 29.1885 19.999C29.6281 20.4385 29.875 21.0346 29.875 21.6562V45.0938C29.875 45.7154 29.6281 46.3115 29.1885 46.751C28.749 47.1906 28.1529 47.4375 27.5312 47.4375ZM38.4688 47.4375H35.3438C34.7221 47.4375 34.126 47.1906 33.6865 46.751C33.2469 46.3115 33 45.7154 33 45.0938V10.7188C33 10.0971 33.2469 9.50101 33.6865 9.06147C34.126 8.62193 34.7221 8.375 35.3438 8.375H38.4688C39.0904 8.375 39.6865 8.62193 40.126 9.06147C40.5656 9.50101 40.8125 10.0971 40.8125 10.7188V45.0938C40.8125 45.7154 40.5656 46.3115 40.126 46.751C39.6865 47.1906 39.0904 47.4375 38.4688 47.4375ZM16.5938 47.4375H13.4688C12.8471 47.4375 12.251 47.1906 11.8115 46.751C11.3719 46.3115 11.125 45.7154 11.125 45.0938V2.90625C11.125 2.28465 11.3719 1.68851 11.8115 1.24897C12.251 0.80943 12.8471 0.5625 13.4688 0.5625H16.5938C17.2154 0.5625 17.8115 0.80943 18.251 1.24897C18.6906 1.68851 18.9375 2.28465 18.9375 2.90625V45.0938C18.9375 45.7154 18.6906 46.3115 18.251 46.751C17.8115 47.1906 17.2154 47.4375 16.5938 47.4375Z" fill="#FF8A00"/>
</svg>
