<svg width="30" height="30" viewBox="0 0 30 30" fill="none" xmlns="http://www.w3.org/2000/svg">
<path d="M20.1562 9.14062V7.73438C20.1562 7.60547 20.0508 7.5 19.9219 7.5H8.67188C8.54297 7.5 8.4375 7.60547 8.4375 7.73438V9.14062C8.4375 9.26953 8.54297 9.375 8.67188 9.375H19.9219C20.0508 9.375 20.1562 9.26953 20.1562 9.14062ZM8.67188 11.7188C8.54297 11.7188 8.4375 11.8242 8.4375 11.9531V13.3594C8.4375 13.4883 8.54297 13.5938 8.67188 13.5938H14.0625C14.1914 13.5938 14.2969 13.4883 14.2969 13.3594V11.9531C14.2969 11.8242 14.1914 11.7188 14.0625 11.7188H8.67188ZM19.6875 15.1172C16.1924 15.1172 13.3594 17.9502 13.3594 21.4453C13.3594 24.9404 16.1924 27.7734 19.6875 27.7734C23.1826 27.7734 26.0156 24.9404 26.0156 21.4453C26.0156 17.9502 23.1826 15.1172 19.6875 15.1172ZM22.8369 24.5947C21.9961 25.4355 20.877 25.8984 19.6875 25.8984C18.498 25.8984 17.3789 25.4355 16.5381 24.5947C15.6973 23.7539 15.2344 22.6348 15.2344 21.4453C15.2344 20.2559 15.6973 19.1367 16.5381 18.2959C17.3789 17.4551 18.498 16.9922 19.6875 16.9922C20.877 16.9922 21.9961 17.4551 22.8369 18.2959C23.6777 19.1367 24.1406 20.2559 24.1406 21.4453C24.1406 22.6348 23.6777 23.7539 22.8369 24.5947ZM22.2949 19.2188H20.9971C20.9209 19.2188 20.8506 19.2539 20.8066 19.3154L18.9463 21.8877L18.2695 20.9531C18.2479 20.9229 18.2192 20.8984 18.1861 20.8816C18.153 20.8647 18.1163 20.8561 18.0791 20.8564H16.7871C16.5967 20.8564 16.4854 21.0732 16.5967 21.2285L18.7588 24.2197C18.8525 24.3486 19.043 24.3486 19.1367 24.2197L22.4824 19.5908C22.5967 19.4355 22.4854 19.2188 22.2949 19.2188ZM12.8906 24.9609H6.09375V4.33594H22.5V14.4141C22.5 14.543 22.6055 14.6484 22.7344 14.6484H24.375C24.5039 14.6484 24.6094 14.543 24.6094 14.4141V3.16406C24.6094 2.64551 24.1904 2.22656 23.6719 2.22656H4.92188C4.40332 2.22656 3.98438 2.64551 3.98438 3.16406V26.1328C3.98438 26.6514 4.40332 27.0703 4.92188 27.0703H12.8906C13.0195 27.0703 13.125 26.9648 13.125 26.8359V25.1953C13.125 25.0664 13.0195 24.9609 12.8906 24.9609Z" fill="#FF8A00"/>
</svg>
