<svg width="25" height="25" viewBox="0 0 25 25" fill="none" xmlns="http://www.w3.org/2000/svg">
<g clip-path="url(#clip0_366_1867)">
<path d="M23.125 10.7C22.8266 10.7 22.5405 10.8185 22.3295 11.0295C22.1185 11.2404 22 11.5266 22 11.825V13.325H20.5V12.575C20.5 12.0777 20.3025 11.6008 19.9508 11.2491C19.5992 10.8975 19.1223 10.7 18.625 10.7H17.5938L14.3903 7.49933C14.2167 7.32462 14.0101 7.1861 13.7826 7.0918C13.555 6.9975 13.311 6.94928 13.0647 6.94995H11.875V5.44995H13.375C13.6734 5.44995 13.9595 5.33142 14.1705 5.12045C14.3815 4.90947 14.5 4.62332 14.5 4.32495C14.5 4.02658 14.3815 3.74043 14.1705 3.52946C13.9595 3.31848 13.6734 3.19995 13.375 3.19995H8.125C7.82663 3.19995 7.54048 3.31848 7.3295 3.52946C7.11853 3.74043 7 4.02658 7 4.32495C7 4.62332 7.11853 4.90947 7.3295 5.12045C7.54048 5.33142 7.82663 5.44995 8.125 5.44995H9.625V6.94995H5.875C5.37772 6.94995 4.90081 7.1475 4.54917 7.49913C4.19754 7.85076 4 8.32767 4 8.82495V13.325H2.5V11.825C2.5 11.5266 2.38147 11.2404 2.1705 11.0295C1.95952 10.8185 1.67337 10.7 1.375 10.7C1.07663 10.7 0.790483 10.8185 0.579505 11.0295C0.368526 11.2404 0.25 11.5266 0.25 11.825L0.25 17.075C0.25 17.3733 0.368526 17.6595 0.579505 17.8704C0.790483 18.0814 1.07663 18.2 1.375 18.2C1.67337 18.2 1.95952 18.0814 2.1705 17.8704C2.38147 17.6595 2.5 17.3733 2.5 17.075V15.575H4V16.7646C3.99933 17.011 4.04755 17.255 4.14185 17.4825C4.23615 17.7101 4.37467 17.9166 4.54938 18.0903L7.85969 21.4006C8.03332 21.5753 8.2399 21.7138 8.46745 21.8081C8.695 21.9024 8.939 21.9506 9.18531 21.95H13.0647C13.311 21.9506 13.555 21.9024 13.7826 21.8081C14.0101 21.7138 14.2167 21.5753 14.3903 21.4006L17.5938 18.2H18.625C18.8712 18.2 19.115 18.1515 19.3425 18.0572C19.57 17.963 19.7767 17.8249 19.9508 17.6508C20.1249 17.4767 20.263 17.27 20.3573 17.0425C20.4515 16.815 20.5 16.5712 20.5 16.325V15.575H22V17.075C22 17.3733 22.1185 17.6595 22.3295 17.8704C22.5405 18.0814 22.8266 18.2 23.125 18.2C23.4234 18.2 23.7095 18.0814 23.9205 17.8704C24.1315 17.6595 24.25 17.3733 24.25 17.075V11.825C24.25 11.5266 24.1315 11.2404 23.9205 11.0295C23.7095 10.8185 23.4234 10.7 23.125 10.7ZM18.25 15.95H17.4353C17.189 15.9493 16.945 15.9975 16.7174 16.0918C16.4899 16.1861 16.2833 16.3246 16.1097 16.4993L12.9062 19.7H9.34375L6.25 16.6062V9.19995H12.9062L16.1069 12.4006C16.2808 12.5756 16.4879 12.7143 16.7159 12.8086C16.944 12.903 17.1885 12.951 17.4353 12.95H18.25V15.95Z" fill="#FF8A00"/>
</g>
<defs>
<clipPath id="clip0_366_1867">
<rect width="24" height="24" fill="white" transform="translate(0.25 0.199951)"/>
</clipPath>
</defs>
</svg>
