<svg width="25" height="25" viewBox="0 0 25 25" fill="none" xmlns="http://www.w3.org/2000/svg">
<path d="M12.75 2.19995C12.0861 2.19974 11.4445 2.43972 10.9437 2.87558C10.4429 3.31145 10.1167 3.91377 10.0253 4.57136C9.93391 5.22895 10.0835 5.89741 10.4464 6.45333C10.8094 7.00925 11.3612 7.4151 12 7.59595V11.45C12 11.6489 12.079 11.8396 12.2197 11.9803C12.3603 12.1209 12.5511 12.2 12.75 12.2C12.9489 12.2 13.1397 12.1209 13.2803 11.9803C13.421 11.8396 13.5 11.6489 13.5 11.45V7.59595C14.1374 7.41371 14.6875 7.00744 15.0492 6.45188C15.4109 5.89631 15.5598 5.22883 15.4685 4.57222C15.3773 3.91561 15.052 3.31403 14.5525 2.87817C14.053 2.4423 13.4129 2.20146 12.75 2.19995ZM6.25 4.19995C5.58696 4.19995 4.95107 4.46334 4.48223 4.93218C4.01339 5.40103 3.75 6.03691 3.75 6.69995V18.7C3.75 19.363 4.01339 19.9989 4.48223 20.4677C4.95107 20.9366 5.58696 21.2 6.25 21.2C6.91304 21.2 7.54893 20.9366 8.01777 20.4677C8.48661 19.9989 8.75 19.363 8.75 18.7V15.2H10.25V18.7C10.25 19.363 10.5134 19.9989 10.9822 20.4677C11.4511 20.9366 12.087 21.2 12.75 21.2C13.413 21.2 14.0489 20.9366 14.5178 20.4677C14.9866 19.9989 15.25 19.363 15.25 18.7V15.2H19.75C20.2804 15.2 20.7891 14.9892 21.1642 14.6142C21.5393 14.2391 21.75 13.7304 21.75 13.2V6.69995C21.75 6.03691 21.4866 5.40103 21.0178 4.93218C20.5489 4.46334 19.913 4.19995 19.25 4.19995C18.587 4.19995 17.9511 4.46334 17.4822 4.93218C17.0134 5.40103 16.75 6.03691 16.75 6.69995V10.2H14.5V11.7H18.25V6.69995C18.25 6.43473 18.3554 6.18038 18.5429 5.99284C18.7304 5.80531 18.9848 5.69995 19.25 5.69995C19.5152 5.69995 19.7696 5.80531 19.9571 5.99284C20.1446 6.18038 20.25 6.43473 20.25 6.69995V13.2C20.25 13.3326 20.1973 13.4597 20.1036 13.5535C20.0098 13.6473 19.8826 13.7 19.75 13.7H13.75V18.7C13.75 18.9652 13.6446 19.2195 13.4571 19.4071C13.2696 19.5946 13.0152 19.7 12.75 19.7C12.4848 19.7 12.2304 19.5946 12.0429 19.4071C11.8554 19.2195 11.75 18.9652 11.75 18.7V13.7H7.25V18.7C7.25 18.9652 7.14464 19.2195 6.95711 19.4071C6.76957 19.5946 6.51522 19.7 6.25 19.7C5.98478 19.7 5.73043 19.5946 5.54289 19.4071C5.35536 19.2195 5.25 18.9652 5.25 18.7V6.69995C5.25 6.43473 5.35536 6.18038 5.54289 5.99284C5.73043 5.80531 5.98478 5.69995 6.25 5.69995C6.51522 5.69995 6.76957 5.80531 6.95711 5.99284C7.14464 6.18038 7.25 6.43473 7.25 6.69995V11.7H11V10.2H8.75V6.69995C8.75 6.03691 8.48661 5.40103 8.01777 4.93218C7.54893 4.46334 6.91304 4.19995 6.25 4.19995Z" fill="#FF8A00"/>
</svg>
