<svg width="24" height="25" viewBox="0 0 24 25" fill="none" xmlns="http://www.w3.org/2000/svg">
<path d="M20.3802 9.07012L19.1502 10.9201C19.7433 12.1032 20.0337 13.415 19.9954 14.7378C19.957 16.0607 19.591 17.3534 18.9302 18.5001H5.07017C4.21134 17.0102 3.85547 15.2832 4.05531 13.5752C4.25516 11.8671 5.00008 10.2689 6.17965 9.01755C7.35922 7.76615 8.91064 6.92816 10.6039 6.62782C12.2972 6.32747 14.0422 6.58076 15.5802 7.35012L17.4302 6.12012C15.5467 4.91234 13.3125 4.37113 11.0851 4.58306C8.85763 4.79499 6.76562 5.74782 5.14367 7.28913C3.52171 8.83045 2.46353 10.8712 2.13839 13.0849C1.81325 15.2987 2.23992 17.5575 3.35017 19.5001C3.52468 19.8024 3.77526 20.0537 4.077 20.2292C4.37875 20.4046 4.72115 20.498 5.07017 20.5001H18.9202C19.2726 20.5015 19.6191 20.4098 19.9247 20.2342C20.2302 20.0586 20.484 19.8053 20.6602 19.5001C21.5815 17.904 22.0439 16.0844 21.9963 14.2421C21.9486 12.3998 21.3928 10.6064 20.3902 9.06012L20.3802 9.07012Z" fill="#363534"/>
<path d="M10.59 15.9099C10.7757 16.0959 10.9963 16.2434 11.2391 16.344C11.4819 16.4447 11.7422 16.4965 12.005 16.4965C12.2678 16.4965 12.5281 16.4447 12.7709 16.344C13.0137 16.2434 13.2342 16.0959 13.42 15.9099L19.08 7.41992L10.59 13.0799C10.404 13.2657 10.2565 13.4862 10.1559 13.729C10.0552 13.9718 10.0034 14.2321 10.0034 14.4949C10.0034 14.7578 10.0552 15.018 10.1559 15.2608C10.2565 15.5036 10.404 15.7242 10.59 15.9099Z" fill="#363534"/>
</svg>
