<svg width="25" height="31" viewBox="0 0 25 31" fill="none" xmlns="http://www.w3.org/2000/svg">
<path fill-rule="evenodd" clip-rule="evenodd" d="M2.25 5.53333C2.25 4.13421 3.38421 3 4.78333 3C6.18245 3 7.31667 4.13421 7.31667 5.53333V6.16667H8.58333C8.58333 4.41777 10.0011 3 11.75 3C13.4989 3 14.9167 4.41777 14.9167 6.16667H16.1833V5.53333C16.1833 4.13421 17.3175 3 18.7167 3C20.1158 3 21.25 4.13421 21.25 5.53333V8.06667C21.25 9.46579 20.1158 10.6 18.7167 10.6C17.3175 10.6 16.1833 9.46579 16.1833 8.06667V7.43333H14.9167C14.9167 8.96534 13.8288 10.2433 12.3833 10.5367V22.6333H16.1833V22C16.1833 20.6009 17.3175 19.4667 18.7167 19.4667C20.1158 19.4667 21.25 20.6009 21.25 22V24.5333C21.25 25.9325 20.1158 27.0667 18.7167 27.0667C17.3175 27.0667 16.1833 25.9325 16.1833 24.5333V23.9H7.31667V24.5333C7.31667 25.9325 6.18245 27.0667 4.78333 27.0667C3.38421 27.0667 2.25 25.9325 2.25 24.5333V22C2.25 20.6009 3.38421 19.4667 4.78333 19.4667C6.18245 19.4667 7.31667 20.6009 7.31667 22V22.6333H11.1167V10.5367C9.67125 10.2433 8.58333 8.96534 8.58333 7.43333H7.31667V8.06667C7.31667 9.46579 6.18245 10.6 4.78333 10.6C3.38421 10.6 2.25 9.46579 2.25 8.06667V5.53333ZM6.05 5.53333V8.06667C6.05 8.76623 5.48289 9.33333 4.78333 9.33333C4.08377 9.33333 3.51667 8.76623 3.51667 8.06667V5.53333C3.51667 4.83377 4.08377 4.26667 4.78333 4.26667C5.48289 4.26667 6.05 4.83377 6.05 5.53333ZM13.65 6.16667V7.43333C13.65 8.48267 12.7993 9.33333 11.75 9.33333C10.7007 9.33333 9.85 8.48268 9.85 7.43333V6.16667C9.85 5.11733 10.7007 4.26667 11.75 4.26667C12.7993 4.26667 13.65 5.11733 13.65 6.16667ZM19.9833 8.06667V5.53333C19.9833 4.83377 19.4162 4.26667 18.7167 4.26667C18.0171 4.26667 17.45 4.83377 17.45 5.53333V8.06667C17.45 8.76623 18.0171 9.33333 18.7167 9.33333C19.4162 9.33333 19.9833 8.76623 19.9833 8.06667ZM19.9833 22V24.5333C19.9833 25.2329 19.4162 25.8 18.7167 25.8C18.0171 25.8 17.45 25.2329 17.45 24.5333V22C17.45 21.3004 18.0171 20.7333 18.7167 20.7333C19.4162 20.7333 19.9833 21.3004 19.9833 22ZM6.05 24.5333V22C6.05 21.3004 5.48289 20.7333 4.78333 20.7333C4.08377 20.7333 3.51667 21.3004 3.51667 22V24.5333C3.51667 25.2329 4.08377 25.8 4.78333 25.8C5.48289 25.8 6.05 25.2329 6.05 24.5333Z" fill="#FF8A00"/>
</svg>
