<svg width="25" height="25" viewBox="0 0 25 25" fill="none" xmlns="http://www.w3.org/2000/svg">
<path d="M20.75 22.2H18.75V20.2C18.75 19.4043 18.4339 18.6412 17.8713 18.0786C17.3087 17.516 16.5456 17.2 15.75 17.2H9.75C8.95435 17.2 8.19129 17.516 7.62868 18.0786C7.06607 18.6412 6.75 19.4043 6.75 20.2V22.2H4.75V20.2C4.75 18.8739 5.27678 17.6021 6.21447 16.6644C7.15215 15.7267 8.42392 15.2 9.75 15.2H15.75C17.0761 15.2 18.3479 15.7267 19.2855 16.6644C20.2232 17.6021 20.75 18.8739 20.75 20.2V22.2ZM12.75 13.2C11.9621 13.2 11.1819 13.0448 10.4539 12.7432C9.72595 12.4417 9.06451 11.9997 8.50736 11.4426C7.95021 10.8854 7.50825 10.224 7.20672 9.49605C6.90519 8.7681 6.75 7.98788 6.75 7.19995C6.75 6.41202 6.90519 5.6318 7.20672 4.90385C7.50825 4.1759 7.95021 3.51446 8.50736 2.95731C9.06451 2.40016 9.72595 1.9582 10.4539 1.65667C11.1819 1.35515 11.9621 1.19995 12.75 1.19995C14.3413 1.19995 15.8674 1.83209 16.9926 2.95731C18.1179 4.08253 18.75 5.60865 18.75 7.19995C18.75 8.79125 18.1179 10.3174 16.9926 11.4426C15.8674 12.5678 14.3413 13.2 12.75 13.2ZM12.75 11.2C13.8109 11.2 14.8283 10.7785 15.5784 10.0284C16.3286 9.27823 16.75 8.26082 16.75 7.19995C16.75 6.13909 16.3286 5.12167 15.5784 4.37152C14.8283 3.62138 13.8109 3.19995 12.75 3.19995C11.6891 3.19995 10.6717 3.62138 9.92157 4.37152C9.17143 5.12167 8.75 6.13909 8.75 7.19995C8.75 8.26082 9.17143 9.27823 9.92157 10.0284C10.6717 10.7785 11.6891 11.2 12.75 11.2Z" fill="#FF8A00"/>
</svg>
