<svg width="25" height="25" viewBox="0 0 50 51" fill="none" xmlns="http://www.w3.org/2000/svg">
<path d="M8.33325 43.8889V10.5556C8.33325 9.40975 8.74158 8.4285 9.55825 7.61183C10.3735 6.79655 11.3541 6.38892 12.4999 6.38892H24.9999C26.1458 6.38892 27.127 6.79655 27.9437 7.61183C28.7589 8.4285 29.1666 9.40975 29.1666 10.5556V25.1389H31.2499C32.3958 25.1389 33.377 25.5466 34.1937 26.3618C35.0089 27.1785 35.4166 28.1597 35.4166 29.3056V38.6806C35.4166 39.2709 35.6166 39.7653 36.0166 40.1639C36.4152 40.5639 36.9096 40.7639 37.4999 40.7639C38.0902 40.7639 38.5846 40.5639 38.9832 40.1639C39.3833 39.7653 39.5833 39.2709 39.5833 38.6806V23.6806C39.2708 23.8542 38.9409 23.9667 38.5937 24.0181C38.2464 24.0709 37.8819 24.0972 37.4999 24.0972C36.0416 24.0972 34.8089 23.5938 33.802 22.5868C32.7951 21.5799 32.2916 20.3472 32.2916 18.8889C32.2916 17.7778 32.5958 16.7792 33.2041 15.8931C33.811 15.0084 34.618 14.375 35.6249 13.9931L31.2499 9.61808L33.4374 7.43058L41.1458 14.9306C41.6666 15.4514 42.0569 16.0591 42.3166 16.7535C42.5777 17.4479 42.7083 18.1597 42.7083 18.8889V38.6806C42.7083 40.1389 42.2048 41.3716 41.1978 42.3785C40.1909 43.3854 38.9583 43.8889 37.4999 43.8889C36.0416 43.8889 34.8089 43.3854 33.802 42.3785C32.7951 41.3716 32.2916 40.1389 32.2916 38.6806V28.2639H29.1666V43.8889H8.33325ZM12.4999 20.9722H24.9999V10.5556H12.4999V20.9722ZM37.4999 20.9722C38.0902 20.9722 38.5846 20.7722 38.9832 20.3722C39.3833 19.9736 39.5833 19.4792 39.5833 18.8889C39.5833 18.2986 39.3833 17.8035 38.9832 17.4035C38.5846 17.0049 38.0902 16.8056 37.4999 16.8056C36.9096 16.8056 36.4152 17.0049 36.0166 17.4035C35.6166 17.8035 35.4166 18.2986 35.4166 18.8889C35.4166 19.4792 35.6166 19.9736 36.0166 20.3722C36.4152 20.7722 36.9096 20.9722 37.4999 20.9722Z" fill="#FF8A00"/>
</svg>
