<svg width="200" height="200" viewBox="0 0 200 200" fill="none" xmlns="http://www.w3.org/2000/svg">
<path d="M91.6665 133.333H108.333V98.3334L121.667 111.667L133.333 100L99.9998 66.6668L66.6665 100L78.3332 111.667L91.6665 98.3334V133.333ZM99.9998 183.333C88.4721 183.333 77.6387 181.145 67.4998 176.767C57.361 172.395 48.5415 166.458 41.0415 158.958C33.5415 151.458 27.6054 142.639 23.2332 132.5C18.8554 122.361 16.6665 111.528 16.6665 100C16.6665 88.4723 18.8554 77.639 23.2332 67.5001C27.6054 57.3612 33.5415 48.5418 41.0415 41.0418C48.5415 33.5418 57.361 27.6029 67.4998 23.2251C77.6387 18.8529 88.4721 16.6667 99.9998 16.6667C111.528 16.6667 122.361 18.8529 132.5 23.2251C142.639 27.6029 151.458 33.5418 158.958 41.0418C166.458 48.5418 172.394 57.3612 176.767 67.5001C181.144 77.639 183.333 88.4723 183.333 100C183.333 111.528 181.144 122.361 176.767 132.5C172.394 142.639 166.458 151.458 158.958 158.958C151.458 166.458 142.639 172.395 132.5 176.767C122.361 181.145 111.528 183.333 99.9998 183.333Z" fill="#FF8A00"/>
</svg>
