<svg width="100" height="100" viewBox="0 0 100 100" fill="none" xmlns="http://www.w3.org/2000/svg">
<path d="M28.7901 3.91212C28.5843 3.91179 28.3785 3.92203 28.1737 3.94278C27.346 4.02735 26.4987 4.28927 25.7018 4.74845C25.7003 4.74942 25.6973 4.74766 25.696 4.74845L19.879 8.11173C18.3442 8.99727 17.4059 10.4848 17.1692 11.975C16.9325 13.4652 17.2903 14.9293 17.9934 16.1684C18.0149 16.2068 18.0378 16.2459 18.0604 16.2842L15.7714 24.1397C15.4226 24.3786 15.0958 24.6482 14.7948 24.9451C13.78 25.9445 13.035 27.2557 12.8722 28.7654C12.7091 30.2756 13.2477 31.9666 14.5139 33.2334L19.2628 37.9883C20.5583 39.2832 22.2503 39.8637 23.7917 39.752C24.696 39.6869 25.5368 39.4092 26.2878 38.9893L27.6735 40.2955C27.2052 40.9011 26.8628 41.5941 26.6663 42.334L26.3491 43.5117L29.877 44.458L30.1942 43.2738C30.4013 42.5018 30.7239 42.225 31.1952 42.0166C31.4305 41.9125 31.7167 41.8473 32.0311 41.8334C32.3456 41.8197 32.6886 41.858 33.02 41.9494C33.6827 42.1326 34.2651 42.5281 34.5763 42.9566C34.8876 43.3854 35.0223 43.7899 34.8266 44.5191L34.5093 45.6973L38.0372 46.6432L38.3546 45.465C38.8136 43.7537 38.4171 42.0354 37.5304 40.8147C36.6442 39.5934 35.3638 38.8068 33.9905 38.4279C33.2977 38.2354 32.579 38.153 31.8606 38.1838C31.5345 38.1984 31.2083 38.2385 30.8841 38.3059L28.8638 36.4016C29.2661 35.6692 29.5317 34.85 29.5962 33.9723C29.7106 32.426 29.1235 30.7352 27.8202 29.4313L23.0657 24.6828C22.1522 23.7688 21.0118 23.2459 19.8796 23.0899L21.0821 18.9697C21.1167 18.9838 21.1511 18.999 21.186 19.0127C22.602 19.5608 24.3766 19.4803 25.9282 18.585L31.7511 15.2283C32.9432 14.5393 33.8069 13.5303 34.2839 12.4266L38.404 13.5863C38.2321 14.3178 38.1848 15.0879 38.3063 15.869C38.5395 17.3695 39.4899 18.867 41.0407 19.7631L46.8636 23.126C47.571 23.5355 48.3533 23.7992 49.1643 23.9014L49.8046 27.4961C49.2704 27.7994 48.7843 28.1752 48.3518 28.601C47.3372 29.601 46.5985 30.9121 46.4354 32.4219C46.2723 33.9316 46.8046 35.6231 48.0712 36.8897L48.8954 37.7139L51.477 35.1318L50.6528 34.3076C50.0878 33.7426 50.0055 33.3248 50.061 32.8125C50.1163 32.3002 50.4257 31.6836 50.9155 31.2012C51.4052 30.7188 52.0425 30.4082 52.5694 30.3527C52.6352 30.3459 52.7022 30.3426 52.7647 30.3406C53.2046 30.327 53.5792 30.4469 54.0466 30.9143V30.9205L54.8702 31.7385L57.446 29.1627L56.628 28.3389C55.7509 27.46 54.6065 26.8974 53.3749 26.7397L52.7401 23.1693C53.7011 22.6039 54.4725 21.7893 55.0171 20.8559C55.7475 19.6035 56.0944 18.0947 55.8042 16.5715C55.5143 15.0481 54.5079 13.5688 52.9112 12.6469L47.0948 9.28985C46.3272 8.84649 45.504 8.60509 44.696 8.54532C43.888 8.48555 43.0932 8.60489 42.3888 8.87501C41.5481 9.19727 40.8243 9.69727 40.2221 10.3092L34.5399 8.71036C34.3916 8.12258 34.1635 7.55784 33.8622 7.03184C33.1427 5.77305 32.0126 4.71622 30.5481 4.20567C29.9993 4.01427 29.4032 3.91505 28.7903 3.9127L28.7901 3.91212ZM28.7536 7.5379C28.9612 7.54376 29.154 7.58712 29.3454 7.65372C29.8559 7.83184 30.3659 8.26954 30.6942 8.84395C31.0227 9.41856 31.1458 10.0871 31.0419 10.6264C30.9388 11.1647 30.6893 11.6244 29.9253 12.0668C29.9233 12.068 29.9206 12.066 29.919 12.0668L24.1022 15.4242C23.4098 15.8234 22.9839 15.7934 22.5032 15.607C22.3683 15.5536 22.2393 15.4862 22.1184 15.4059L22.1368 15.3385L21.9598 15.2897C21.661 15.0586 21.3784 14.742 21.1663 14.3682C20.827 13.7705 20.6927 13.0725 20.7757 12.5494C20.8587 12.0264 21.0491 11.6514 21.7034 11.274V11.2678L27.5198 7.91075H27.5261C27.9206 7.68302 28.2464 7.57481 28.5393 7.54454C28.6126 7.53712 28.6839 7.53673 28.753 7.53868L28.7536 7.5379ZM44.2382 12.1524C44.2987 12.1484 44.3589 12.1477 44.4214 12.1524C44.6706 12.1699 44.9364 12.2559 45.2636 12.4453V12.4512L51.0864 15.8082C51.8755 16.2637 52.1204 16.7234 52.2216 17.2547C52.3227 17.7859 52.1946 18.4471 51.8614 19.0184C51.5284 19.59 51.0132 20.0289 50.4942 20.2088C49.9759 20.3885 49.4559 20.408 48.6876 19.9647L42.8651 16.6016C42.1729 16.2016 41.9921 15.8233 41.9128 15.3137C41.8335 14.8043 41.9675 14.1242 42.3155 13.5315C42.6638 12.9389 43.2007 12.4699 43.695 12.2805C43.8802 12.2094 44.0563 12.1637 44.238 12.1524H44.2382ZM19.2077 26.6844C19.6464 26.6717 20.0163 26.7967 20.4831 27.2645L25.238 32.0125C25.8817 32.657 25.9977 33.1641 25.9579 33.7033C25.918 34.2428 25.6282 34.8488 25.1583 35.3147C24.6886 35.7807 24.0763 36.0748 23.5288 36.1143C22.9809 36.1539 22.4712 36.0332 21.844 35.4063L17.0956 30.6582C16.5311 30.0928 16.4485 29.669 16.5038 29.1563C16.5591 28.6441 16.8684 28.0277 17.3583 27.5449C17.8481 27.0625 18.4858 26.752 19.0126 26.6967C19.0782 26.6899 19.145 26.6863 19.2079 26.6846L19.2077 26.6844ZM62.4999 29.2725L50.3722 41.4002L59.912 50.9399L65.1733 45.6785L65.2403 45.7457C65.4311 45.528 65.6287 45.3163 65.8327 45.1109C71.2409 39.7022 80.0104 39.7022 85.4186 45.1109C90.7321 50.424 90.8257 58.9824 85.6995 64.4098C85.6987 64.4125 85.6946 64.4137 85.6936 64.4162C85.4925 64.9072 85.4257 65.3859 85.4436 65.8504C85.4788 66.7795 85.9153 67.7068 86.603 68.4018C87.2905 69.0963 88.1987 69.5248 89.1177 69.5611C89.8235 69.5893 90.5649 69.4186 91.3579 68.8531C98.6977 60.584 98.4114 47.8981 90.4911 39.9777C84.788 34.2746 76.5893 32.5766 69.3852 34.7897L68.3354 35.1131L67.56 34.3381L62.4999 29.2725ZM60.205 37.2193L63.7817 40.7959L61.1997 43.3779L57.6231 39.801L60.2052 37.2193H60.205ZM23.7733 46.5943L20.2819 59.6373L27.4655 61.56L27.4413 61.6518C27.7235 61.7088 28.0077 61.7713 28.2897 61.8471C35.678 63.8266 40.0593 71.4203 38.0798 78.8086C36.1341 86.0694 28.7682 90.4268 21.5024 88.6963C20.9761 88.7695 20.5286 88.9553 20.1352 89.2029C19.3481 89.6977 18.7634 90.5303 18.5056 91.4733C18.2477 92.4162 18.3282 93.424 18.7555 94.2381C19.0848 94.8643 19.6052 95.4266 20.4952 95.8311C31.3243 98.051 42.1671 91.4547 45.068 80.6397C45.0686 80.6377 45.0675 80.6354 45.068 80.6334C47.1526 72.8447 44.5245 64.8967 39.0075 59.7654L38.2016 59.0147L38.4823 57.9527L40.3378 51.0309L23.7733 46.594V46.5943ZM54.9559 51.1412C53.7679 57.6803 55.6856 64.6334 60.7606 69.7082C67.8317 76.7795 78.6331 77.8242 86.7489 72.76C85.7056 72.3674 84.7704 71.7416 84.0028 70.9658C82.9999 69.9529 82.2665 68.6631 81.9579 67.2244C76.7489 69.9027 70.1962 69.0615 65.8323 64.6975C62.9544 61.8195 61.6071 57.9924 61.7919 54.2238L61.2059 54.8098L59.912 56.1037L58.6241 54.8098L54.9561 51.1418L54.9559 51.1412ZM29.2419 51.9408L32.7692 52.8869L31.4634 57.7762L27.9354 56.8301L29.2421 51.9408H29.2419ZM17.6266 55.4443C11.3727 57.6865 6.31219 62.8272 4.45516 69.7568C1.86688 79.417 6.36336 89.2904 14.8067 93.7867C14.6239 92.6879 14.6958 91.568 14.9839 90.5152C15.3595 89.141 16.1134 87.8531 17.2054 86.8652C12.2796 83.6938 9.73035 77.6055 11.328 71.643C12.3817 67.7106 15.0263 64.6266 18.3837 62.9027L17.578 62.6895L15.8143 62.2129L16.2841 60.4492L17.6266 55.4443Z" fill="#FF8A00"/>
</svg>
