<svg width="319" height="99" viewBox="0 0 319 99" fill="none" xmlns="http://www.w3.org/2000/svg">
<path d="M45 4H47V2H45V4ZM45 46V48H47V46H45ZM36.78 46H34.78V48H36.78V46ZM36.78 18.76H38.78V11.6022L35.0697 17.7233L36.78 18.76ZM24.96 38.26V40.26H26.0864L26.6703 39.2967L24.96 38.26ZM24 38.26L22.2911 39.2991L22.8754 40.26H24V38.26ZM12.18 18.82L13.8889 17.7809L10.18 11.681V18.82H12.18ZM12.18 46V48H14.18V46H12.18ZM3.9 46H1.9V48H3.9V46ZM3.9 4V2H1.9V4H3.9ZM12.42 4L14.1295 2.96191L13.5454 2H12.42V4ZM24.48 23.86L22.7705 24.8981L24.4843 27.7203L26.1918 24.8943L24.48 23.86ZM36.48 4V2H35.3517L34.7682 2.96569L36.48 4ZM43 4V46H47V4H43ZM45 44H36.78V48H45V44ZM38.78 46V18.76H34.78V46H38.78ZM35.0697 17.7233L23.2497 37.2233L26.6703 39.2967L38.4903 19.7967L35.0697 17.7233ZM24.96 36.26H24V40.26H24.96V36.26ZM25.7089 37.2209L13.8889 17.7809L10.4711 19.8591L22.2911 39.2991L25.7089 37.2209ZM10.18 18.82V46H14.18V18.82H10.18ZM12.18 44H3.9V48H12.18V44ZM5.9 46V4H1.9V46H5.9ZM3.9 6H12.42V2H3.9V6ZM10.7105 5.03809L22.7705 24.8981L26.1895 22.8219L14.1295 2.96191L10.7105 5.03809ZM26.1918 24.8943L38.1918 5.03431L34.7682 2.96569L22.7682 22.8257L26.1918 24.8943ZM36.48 6H45V2H36.48V6ZM63.1058 38.08H61.1058V40.08H63.1058V38.08ZM80.8058 38.08H82.8058V36.08H80.8058V38.08ZM80.8058 46V48H82.8058V46H80.8058ZM54.8258 46H52.8258V48H54.8258V46ZM54.8258 4V2H52.8258V4H54.8258ZM80.5058 4H82.5058V2H80.5058V4ZM80.5058 11.92V13.92H82.5058V11.92H80.5058ZM63.1058 11.92V9.92H61.1058V11.92H63.1058ZM63.1058 20.86H61.1058V22.86H63.1058V20.86ZM79.0058 20.86H81.0058V18.86H79.0058V20.86ZM79.0058 28.66V30.66H81.0058V28.66H79.0058ZM63.1058 28.66V26.66H61.1058V28.66H63.1058ZM63.1058 40.08H80.8058V36.08H63.1058V40.08ZM78.8058 38.08V46H82.8058V38.08H78.8058ZM80.8058 44H54.8258V48H80.8058V44ZM56.8258 46V4H52.8258V46H56.8258ZM54.8258 6H80.5058V2H54.8258V6ZM78.5058 4V11.92H82.5058V4H78.5058ZM80.5058 9.92H63.1058V13.92H80.5058V9.92ZM61.1058 11.92V20.86H65.1058V11.92H61.1058ZM63.1058 22.86H79.0058V18.86H63.1058V22.86ZM77.0058 20.86V28.66H81.0058V20.86H77.0058ZM79.0058 26.66H63.1058V30.66H79.0058V26.66ZM61.1058 28.66V38.08H65.1058V28.66H61.1058ZM116.422 4H118.422V2H116.422V4ZM116.422 11.92V13.92H118.422V11.92H116.422ZM105.082 11.92V9.92H103.082V11.92H105.082ZM105.082 46V48H107.082V46H105.082ZM96.8022 46H94.8022V48H96.8022V46ZM96.8022 11.92H98.8022V9.92H96.8022V11.92ZM85.5222 11.92H83.5222V13.92H85.5222V11.92ZM85.5222 4V2H83.5222V4H85.5222ZM114.422 4V11.92H118.422V4H114.422ZM116.422 9.92H105.082V13.92H116.422V9.92ZM103.082 11.92V46H107.082V11.92H103.082ZM105.082 44H96.8022V48H105.082V44ZM98.8022 46V11.92H94.8022V46H98.8022ZM96.8022 9.92H85.5222V13.92H96.8022V9.92ZM87.5222 11.92V4H83.5222V11.92H87.5222ZM85.5222 6H116.422V2H85.5222V6ZM146.085 46L144.355 47.0038L144.933 48H146.085V46ZM137.625 31.42L139.354 30.4162L138.776 29.42H137.625V31.42ZM131.325 31.42V29.42H129.325V31.42H131.325ZM131.325 46V48H133.325V46H131.325ZM123.045 46H121.045V48H123.045V46ZM123.045 4V2H121.045V4H123.045ZM149.745 8.08L151.159 6.66579V6.66578L149.745 8.08ZM151.605 25.18L153.264 26.2964L153.269 26.2895L153.273 26.2825L151.605 25.18ZM145.725 30.16L144.89 28.3423L142.88 29.2651L144 31.1726L145.725 30.16ZM155.025 46V48H158.518L156.749 44.9874L155.025 46ZM131.325 11.74V9.74H129.325V11.74H131.325ZM131.325 24.16H129.325V26.16H131.325V24.16ZM143.865 22.36L145.327 23.7246L145.338 23.7127L145.349 23.7006L143.865 22.36ZM143.865 13.54L142.402 14.9046L143.865 13.54ZM147.814 44.9962L139.354 30.4162L135.895 32.4238L144.355 47.0038L147.814 44.9962ZM137.625 29.42H131.325V33.42H137.625V29.42ZM129.325 31.42V46H133.325V31.42H129.325ZM131.325 44H123.045V48H131.325V44ZM125.045 46V4H121.045V46H125.045ZM123.045 6H139.845V2H123.045V6ZM139.845 6C143.199 6 145.989 7.15292 148.33 9.49421L151.159 6.66578C148.06 3.56707 144.25 2 139.845 2V6ZM148.33 9.49421C150.676 11.8399 151.825 14.6115 151.825 17.92H155.825C155.825 13.5485 154.253 9.76013 151.159 6.66579L148.33 9.49421ZM151.825 17.92C151.825 20.1146 151.207 22.1533 149.936 24.0775L153.273 26.2825C154.962 23.7267 155.825 20.9253 155.825 17.92H151.825ZM149.945 24.0636C148.673 25.9544 147 27.3738 144.89 28.3423L146.559 31.9777C149.329 30.7062 151.576 28.8056 153.264 26.2964L149.945 24.0636ZM144 31.1726L153.3 47.0126L156.749 44.9874L147.449 29.1474L144 31.1726ZM155.025 44H146.085V48H155.025V44ZM129.325 11.74V24.16H133.325V11.74H129.325ZM131.325 26.16H139.845V22.16H131.325V26.16ZM139.845 26.16C141.991 26.16 143.851 25.3061 145.327 23.7246L142.402 20.9954C141.638 21.8139 140.818 22.16 139.845 22.16V26.16ZM145.349 23.7006C146.811 22.0813 147.545 20.1193 147.545 17.92H143.545C143.545 19.1607 143.158 20.1587 142.38 21.0194L145.349 23.7006ZM147.545 17.92C147.545 15.7201 146.81 13.7648 145.327 12.1754L142.402 14.9046C143.159 15.7152 143.545 16.6799 143.545 17.92H147.545ZM145.327 12.1754C143.851 10.5939 141.991 9.74 139.845 9.74V13.74C140.818 13.74 141.638 14.0861 142.402 14.9046L145.327 12.1754ZM139.845 9.74H131.325V13.74H139.845V9.74ZM188.9 46L187.003 46.6325L187.458 48H188.9V46ZM186.38 38.44L188.277 37.8075L187.822 36.44H186.38V38.44ZM169.64 38.44V36.44H168.198L167.743 37.8075L169.64 38.44ZM167.12 46V48H168.562L169.017 46.6325L167.12 46ZM158.18 46L156.292 45.3393L155.361 48H158.18V46ZM172.88 4V2H171.461L170.992 3.3393L172.88 4ZM183.14 4L185.027 3.3369L184.557 2H183.14V4ZM197.9 46V48H200.723L199.787 45.3369L197.9 46ZM172.28 30.7L170.384 30.0636L169.499 32.7H172.28V30.7ZM183.8 30.7V32.7H186.581L185.696 30.0636L183.8 30.7ZM178.04 13.54L179.936 12.9036L178.04 7.25496L176.144 12.9036L178.04 13.54ZM190.797 45.3675L188.277 37.8075L184.483 39.0725L187.003 46.6325L190.797 45.3675ZM186.38 36.44H169.64V40.44H186.38V36.44ZM167.743 37.8075L165.223 45.3675L169.017 46.6325L171.537 39.0725L167.743 37.8075ZM167.12 44H158.18V48H167.12V44ZM160.068 46.6607L174.768 4.6607L170.992 3.3393L156.292 45.3393L160.068 46.6607ZM172.88 6H183.14V2H172.88V6ZM181.253 4.6631L196.013 46.6631L199.787 45.3369L185.027 3.3369L181.253 4.6631ZM197.9 44H188.9V48H197.9V44ZM172.28 32.7H183.8V28.7H172.28V32.7ZM185.696 30.0636L179.936 12.9036L176.144 14.1764L181.904 31.3364L185.696 30.0636ZM176.144 12.9036L170.384 30.0636L174.176 31.3364L179.936 14.1764L176.144 12.9036Z" fill="#FF8A00"/>
<path d="M188.9 85L187.003 85.6325L187.458 87H188.9V85ZM186.38 77.44L188.277 76.8075L187.822 75.44H186.38V77.44ZM169.64 77.44V75.44H168.198L167.743 76.8075L169.64 77.44ZM167.12 85V87H168.562L169.017 85.6325L167.12 85ZM158.18 85L156.292 84.3393L155.361 87H158.18V85ZM172.88 43V41H171.461L170.992 42.3393L172.88 43ZM183.14 43L185.027 42.3369L184.557 41H183.14V43ZM197.9 85V87H200.723L199.787 84.3369L197.9 85ZM172.28 69.7L170.384 69.0636L169.499 71.7H172.28V69.7ZM183.8 69.7V71.7H186.581L185.696 69.0636L183.8 69.7ZM178.04 52.54L179.936 51.9036L178.04 46.255L176.144 51.9036L178.04 52.54ZM190.797 84.3675L188.277 76.8075L184.483 78.0725L187.003 85.6325L190.797 84.3675ZM186.38 75.44H169.64V79.44H186.38V75.44ZM167.743 76.8075L165.223 84.3675L169.017 85.6325L171.537 78.0725L167.743 76.8075ZM167.12 83H158.18V87H167.12V83ZM160.068 85.6607L174.768 43.6607L170.992 42.3393L156.292 84.3393L160.068 85.6607ZM172.88 45H183.14V41H172.88V45ZM181.253 43.6631L196.013 85.6631L199.787 84.3369L185.027 42.3369L181.253 43.6631ZM197.9 83H188.9V87H197.9V83ZM172.28 71.7H183.8V67.7H172.28V71.7ZM185.696 69.0636L179.936 51.9036L176.144 53.1764L181.904 70.3364L185.696 69.0636ZM176.144 51.9036L170.384 69.0636L174.176 70.3364L179.936 53.1764L176.144 51.9036ZM211.956 85L210.06 85.6365L210.518 87H211.956V85ZM197.856 43V41H195.075L195.96 43.6365L197.856 43ZM206.856 43L208.762 42.3942L208.319 41H206.856V43ZM217.116 75.28L215.21 75.8858L217.121 81.9002L219.023 75.8826L217.116 75.28ZM227.316 43V41H225.85L225.409 42.3974L227.316 43ZM236.376 43L238.271 43.6389L239.161 41H236.376V43ZM222.216 85V87H223.652L224.111 85.639L222.216 85ZM213.852 84.3635L199.752 42.3635L195.96 43.6365L210.06 85.6365L213.852 84.3635ZM197.856 45H206.856V41H197.856V45ZM204.95 43.6058L215.21 75.8858L219.022 74.6742L208.762 42.3942L204.95 43.6058ZM219.023 75.8826L229.223 43.6026L225.409 42.3974L215.209 74.6774L219.023 75.8826ZM227.316 45H236.376V41H227.316V45ZM234.481 42.361L220.321 84.361L224.111 85.639L238.271 43.6389L234.481 42.361ZM222.216 83H211.956V87H222.216V83ZM270.203 43H272.203V41H270.203V43ZM270.203 50.92V52.92H272.203V50.92H270.203ZM258.863 50.92V48.92H256.863V50.92H258.863ZM258.863 85V87H260.863V85H258.863ZM250.583 85H248.583V87H250.583V85ZM250.583 50.92H252.583V48.92H250.583V50.92ZM239.303 50.92H237.303V52.92H239.303V50.92ZM239.303 43V41H237.303V43H239.303ZM268.203 43V50.92H272.203V43H268.203ZM270.203 48.92H258.863V52.92H270.203V48.92ZM256.863 50.92V85H260.863V50.92H256.863ZM258.863 83H250.583V87H258.863V83ZM252.583 85V50.92H248.583V85H252.583ZM250.583 48.92H239.303V52.92H250.583V48.92ZM241.303 50.92V43H237.303V50.92H241.303ZM239.303 45H270.203V41H239.303V45ZM309.763 79.54L311.171 80.9609L311.178 80.9542L309.763 79.54ZM278.803 79.54L277.383 80.9475L277.389 80.9542L277.396 80.9609L278.803 79.54ZM278.803 48.52L277.389 47.1058L278.803 48.52ZM309.763 48.52L308.349 49.9342L308.356 49.9409L309.763 48.52ZM284.623 73.9L283.209 75.3142L283.215 75.3197L283.22 75.3251L284.623 73.9ZM303.943 73.9L305.347 75.3251L305.352 75.3197L305.358 75.3142L303.943 73.9ZM303.943 54.1L305.358 52.6858V52.6858L303.943 54.1ZM284.623 54.1L283.209 52.6858L283.209 52.6858L284.623 54.1ZM308.356 78.1191C304.498 81.9404 299.847 83.84 294.283 83.84V87.84C300.88 87.84 306.549 85.5396 311.171 80.9609L308.356 78.1191ZM294.283 83.84C288.72 83.84 284.069 81.9404 280.211 78.1191L277.396 80.9609C282.018 85.5396 287.687 87.84 294.283 87.84V83.84ZM280.224 78.1325C276.406 74.2775 274.503 69.6079 274.503 64H270.503C270.503 70.6321 272.801 76.3225 277.383 80.9475L280.224 78.1325ZM274.503 64C274.503 58.3924 276.405 53.7466 280.218 49.9342L277.389 47.1058C272.802 51.6934 270.503 57.3676 270.503 64H274.503ZM280.218 49.9342C284.077 46.0751 288.726 44.16 294.283 44.16V40.16C287.681 40.16 282.01 42.4849 277.389 47.1058L280.218 49.9342ZM294.283 44.16C299.841 44.16 304.49 46.0751 308.349 49.9342L311.178 47.1058C306.557 42.4849 300.886 40.16 294.283 40.16V44.16ZM308.356 49.9409C312.206 53.7547 314.123 58.3985 314.123 64H318.123C318.123 57.3615 315.801 51.6853 311.171 47.0991L308.356 49.9409ZM314.123 64C314.123 69.6018 312.206 74.2694 308.349 78.1258L311.178 80.9542C315.801 76.3306 318.123 70.6382 318.123 64H314.123ZM283.22 75.3251C286.216 78.2744 289.949 79.74 294.283 79.74V75.74C290.938 75.74 288.231 74.6456 286.027 72.4749L283.22 75.3251ZM294.283 79.74C298.618 79.74 302.351 78.2744 305.347 75.3251L302.54 72.4749C300.336 74.6456 297.629 75.74 294.283 75.74V79.74ZM305.358 75.3142C308.368 72.3043 309.843 68.4791 309.843 64H305.843C305.843 67.5209 304.719 70.2957 302.529 72.4858L305.358 75.3142ZM309.843 64C309.843 59.5209 308.368 55.6957 305.358 52.6858L302.529 55.5142C304.719 57.7043 305.843 60.4791 305.843 64H309.843ZM305.358 52.6858C302.364 49.6926 298.628 48.2 294.283 48.2V52.2C297.619 52.2 300.322 53.3074 302.529 55.5142L305.358 52.6858ZM294.283 48.2C289.939 48.2 286.202 49.6926 283.209 52.6858L286.038 55.5142C288.244 53.3074 290.948 52.2 294.283 52.2V48.2ZM283.209 52.6858C280.199 55.6957 278.723 59.5209 278.723 64H282.723C282.723 60.4791 283.848 57.7043 286.038 55.5142L283.209 52.6858ZM278.723 64C278.723 68.4791 280.199 72.3043 283.209 75.3142L286.038 72.4858C283.848 70.2957 282.723 67.5209 282.723 64H278.723Z" fill="#FBFBFD"/>
</svg>
