<svg width="30" height="30" viewBox="0 0 30 30" fill="none" xmlns="http://www.w3.org/2000/svg">
<path d="M15 10.3125C14.0729 10.3125 13.1666 10.5874 12.3958 11.1025C11.6249 11.6176 11.0241 12.3496 10.6693 13.2062C10.3145 14.0627 10.2217 15.0052 10.4026 15.9145C10.5834 16.8238 11.0299 17.659 11.6854 18.3146C12.341 18.9701 13.1762 19.4166 14.0855 19.5974C14.9948 19.7783 15.9373 19.6855 16.7938 19.3307C17.6504 18.9759 18.3824 18.3751 18.8975 17.6042C19.4126 16.8334 19.6875 15.9271 19.6875 15C19.6875 13.7568 19.1936 12.5645 18.3146 11.6854C17.4355 10.8064 16.2432 10.3125 15 10.3125ZM15 17.8125C14.4437 17.8125 13.9 17.6476 13.4375 17.3385C12.9749 17.0295 12.6145 16.5902 12.4016 16.0763C12.1887 15.5624 12.133 14.9969 12.2415 14.4513C12.3501 13.9057 12.6179 13.4046 13.0113 13.0113C13.4046 12.6179 13.9057 12.3501 14.4513 12.2415C14.9969 12.133 15.5624 12.1887 16.0763 12.4016C16.5902 12.6145 17.0295 12.9749 17.3385 13.4375C17.6476 13.9 17.8125 14.4437 17.8125 15C17.8125 15.7459 17.5162 16.4613 16.9887 16.9887C16.4613 17.5162 15.7459 17.8125 15 17.8125ZM28.125 6.5625H1.875C1.62636 6.5625 1.3879 6.66127 1.21209 6.83709C1.03627 7.0129 0.9375 7.25136 0.9375 7.5V22.5C0.9375 22.7486 1.03627 22.9871 1.21209 23.1629C1.3879 23.3387 1.62636 23.4375 1.875 23.4375H28.125C28.3736 23.4375 28.6121 23.3387 28.7879 23.1629C28.9637 22.9871 29.0625 22.7486 29.0625 22.5V7.5C29.0625 7.25136 28.9637 7.0129 28.7879 6.83709C28.6121 6.66127 28.3736 6.5625 28.125 6.5625ZM22.6934 21.5625H7.30664C6.99188 20.498 6.41579 19.5291 5.63084 18.7442C4.84589 17.9592 3.87703 17.3831 2.8125 17.0684V12.9316C3.87703 12.6169 4.84589 12.0408 5.63084 11.2558C6.41579 10.4709 6.99188 9.50203 7.30664 8.4375H22.6934C23.0081 9.50203 23.5842 10.4709 24.3692 11.2558C25.1541 12.0408 26.123 12.6169 27.1875 12.9316V17.0684C26.123 17.3831 25.1541 17.9592 24.3692 18.7442C23.5842 19.5291 23.0081 20.498 22.6934 21.5625ZM27.1875 10.9418C26.063 10.4583 25.1667 9.56199 24.6832 8.4375H27.1875V10.9418ZM5.3168 8.4375C4.83327 9.56199 3.93699 10.4583 2.8125 10.9418V8.4375H5.3168ZM2.8125 19.0582C3.93699 19.5417 4.83327 20.438 5.3168 21.5625H2.8125V19.0582ZM24.6832 21.5625C25.1667 20.438 26.063 19.5417 27.1875 19.0582V21.5625H24.6832Z" fill="#FF8A00"/>
</svg>
