<svg width="100" height="100" viewBox="0 0 100 100" fill="none" xmlns="http://www.w3.org/2000/svg">
<path d="M90.0938 9.90625C88.933 8.74522 87.5549 7.82422 86.0381 7.19586C84.5214 6.5675 82.8957 6.24408 81.2539 6.24408C79.6122 6.24408 77.9865 6.5675 76.4697 7.19586C74.953 7.82422 73.5749 8.74522 72.4141 9.90625C72.375 9.94532 72.336 9.98438 72.3008 10.0273L50.8516 33.9258L47.2656 30.3281C46.395 29.4571 45.3613 28.7661 44.2236 28.2946C43.0858 27.8232 41.8663 27.5805 40.6348 27.5805C39.4032 27.5805 38.1837 27.8232 37.046 28.2946C35.9082 28.7661 34.8745 29.4571 34.0039 30.3281L4.04689 60.2891C3.46128 60.8751 3.13232 61.6696 3.13232 62.498C3.13232 63.3265 3.46128 64.121 4.04689 64.707L35.2969 95.957C35.8829 96.5426 36.6774 96.8716 37.5059 96.8716C38.3343 96.8716 39.1289 96.5426 39.7149 95.957L69.6719 66.0156C70.543 65.145 71.234 64.1113 71.7054 62.9736C72.1768 61.8358 72.4195 60.6163 72.4195 59.3848C72.4195 58.1532 72.1768 56.9337 71.7054 55.796C71.234 54.6582 70.543 53.6245 69.6719 52.7539L66.0742 49.1602L89.9727 27.7109C90.0159 27.6749 90.0564 27.6358 90.0938 27.5938C91.256 26.4328 92.178 25.0542 92.807 23.5368C93.4361 22.0193 93.7599 20.3927 93.7599 18.75C93.7599 17.1073 93.4361 15.4807 92.807 13.9632C92.178 12.4458 91.256 11.0672 90.0938 9.90625ZM37.5 89.332L30.9844 82.8125L39.711 74.082C40.2723 73.4912 40.5806 72.7045 40.5701 71.8896C40.5597 71.0747 40.2314 70.2962 39.6551 69.7199C39.0789 69.1437 38.3003 68.8153 37.4854 68.8049C36.6705 68.7944 35.8838 69.1027 35.293 69.6641L26.5625 78.3906L21.6094 73.4375L30.336 64.707C30.8973 64.1162 31.2056 63.3295 31.1951 62.5146C31.1847 61.6997 30.8564 60.9212 30.2801 60.3449C29.7039 59.7687 28.9253 59.4403 28.1104 59.4299C27.2955 59.4194 26.5088 59.7277 25.918 60.2891L17.1875 69.0156L10.668 62.5L28.125 45.043L54.957 71.875L37.5 89.332Z" fill="#FF8A00"/>
</svg>
