<svg width="47" height="30" viewBox="0 0 47 30" fill="none" xmlns="http://www.w3.org/2000/svg">
<path d="M23.5 7.1875C21.9548 7.1875 20.4444 7.6457 19.1596 8.50414C17.8748 9.36259 16.8735 10.5827 16.2822 12.0103C15.6909 13.4378 15.5362 15.0087 15.8376 16.5241C16.1391 18.0396 16.8831 19.4317 17.9757 20.5243C19.0683 21.6169 20.4604 22.3609 21.9759 22.6624C23.4913 22.9638 25.0622 22.8091 26.4897 22.2178C27.9173 21.6265 29.1374 20.6252 29.9959 19.3404C30.8543 18.0556 31.3125 16.5452 31.3125 15C31.3125 12.928 30.4894 10.9409 29.0243 9.47573C27.5591 8.0106 25.572 7.1875 23.5 7.1875ZM23.5 19.6875C22.5729 19.6875 21.6666 19.4126 20.8958 18.8975C20.1249 18.3824 19.5241 17.6504 19.1693 16.7938C18.8145 15.9373 18.7217 14.9948 18.9026 14.0855C19.0834 13.1762 19.5299 12.341 20.1854 11.6854C20.841 11.0299 21.6762 10.5834 22.5855 10.4026C23.4948 10.2217 24.4373 10.3145 25.2938 10.6693C26.1504 11.0241 26.8824 11.6249 27.3975 12.3958C27.9126 13.1666 28.1875 14.0729 28.1875 15C28.1875 16.2432 27.6936 17.4355 26.8146 18.3146C25.9355 19.1936 24.7432 19.6875 23.5 19.6875ZM45.375 0.9375H1.625C1.2106 0.9375 0.813171 1.10212 0.520146 1.39515C0.22712 1.68817 0.0625 2.0856 0.0625 2.5V27.5C0.0625 27.9144 0.22712 28.3118 0.520146 28.6049C0.813171 28.8979 1.2106 29.0625 1.625 29.0625H45.375C45.7894 29.0625 46.1868 28.8979 46.4799 28.6049C46.7729 28.3118 46.9375 27.9144 46.9375 27.5V2.5C46.9375 2.0856 46.7729 1.68817 46.4799 1.39515C46.1868 1.10212 45.7894 0.9375 45.375 0.9375ZM36.3223 25.9375H10.6777C10.1531 24.1633 9.19298 22.5485 7.88473 21.2403C6.57648 19.932 4.96171 18.9719 3.1875 18.4473V11.5527C4.96171 11.0281 6.57648 10.068 7.88473 8.75973C9.19298 7.45148 10.1531 5.83671 10.6777 4.0625H36.3223C36.8469 5.83671 37.807 7.45148 39.1153 8.75973C40.4235 10.068 42.0383 11.0281 43.8125 11.5527V18.4473C42.0383 18.9719 40.4235 19.932 39.1153 21.2403C37.807 22.5485 36.8469 24.1633 36.3223 25.9375ZM43.8125 8.23633C41.9384 7.43045 40.4445 5.93665 39.6387 4.0625H43.8125V8.23633ZM7.36133 4.0625C6.55545 5.93665 5.06165 7.43045 3.1875 8.23633V4.0625H7.36133ZM3.1875 21.7637C5.06165 22.5695 6.55545 24.0634 7.36133 25.9375H3.1875V21.7637ZM39.6387 25.9375C40.4445 24.0634 41.9384 22.5695 43.8125 21.7637V25.9375H39.6387Z" fill="#FF8A00"/>
</svg>
