<svg xmlns="http://www.w3.org/2000/svg" height="40" width="40"><path d="M26.667 18.625q.75 0 1.291-.521.542-.521.542-1.312 0-.792-.542-1.334-.541-.541-1.291-.541-.792 0-1.334.541-.541.542-.541 1.334 0 .791.541 1.312.542.521 1.334.521Zm-13.709-3.792h8.709v-3h-8.709ZM7.042 35.292q-1.417-4.834-2.813-9.625-1.396-4.792-1.396-9.834 0-3.958 2.75-6.708t6.667-2.75h8.625q1.25-1.583 3.021-2.458 1.771-.875 3.771-.875 1.166 0 1.979.812.812.813.812 1.979 0 .25-.062.5-.063.25-.146.5-.167.417-.292.875-.125.459-.208.917l3.583 3.583h3.834v12.125l-4.792 1.542-2.833 9.417h-9.625v-3.334h-3.209v3.334Zm2.375-3.167h4.166v-3.333H23v3.333h4.167l2.625-8.667L34 22.042v-6.667h-2l-5.5-5.5q.042-.958.229-1.875.188-.917.438-1.833-1.459.416-2.688 1.229-1.229.812-1.896 2.146H12.25q-2.583 0-4.438 1.833-1.854 1.833-1.854 4.458 0 4.209 1.188 8.209 1.187 4 2.271 8.083Zm10.583-13Z"/></svg>