<svg width="43" height="42" viewBox="0 0 43 42" fill="none" xmlns="http://www.w3.org/2000/svg">
<path d="M21.479 0.166748C9.979 0.166748 0.666504 9.50008 0.666504 21.0001C0.666504 32.5001 9.979 41.8334 21.479 41.8334C32.9998 41.8334 42.3332 32.5001 42.3332 21.0001C42.3332 9.50008 32.9998 0.166748 21.479 0.166748ZM21.4998 37.6667C12.2915 37.6667 4.83317 30.2084 4.83317 21.0001C4.83317 11.7917 12.2915 4.33341 21.4998 4.33341C30.7082 4.33341 38.1665 11.7917 38.1665 21.0001C38.1665 30.2084 30.7082 37.6667 21.4998 37.6667ZM22.5415 10.5834H19.4165V23.0834L30.354 29.6459L31.9165 27.0834L22.5415 21.5209V10.5834Z" fill="#FF8A00"/>
</svg>
