<svg width="100" height="100" viewBox="0 0 100 100" fill="none" xmlns="http://www.w3.org/2000/svg">
<path d="M66.6668 54.1667V45.8334H49.1668L55.8335 39.1667L50.0002 33.3334L33.3335 50.0001L50.0002 66.6667L55.8335 60.8334L49.1668 54.1667H66.6668ZM91.6668 50.0001C91.6668 55.764 90.5724 61.1806 88.3835 66.2501C86.1974 71.3195 83.2293 75.7292 79.4793 79.4792C75.7293 83.2292 71.3196 86.1973 66.2502 88.3834C61.1807 90.5723 55.7641 91.6667 50.0002 91.6667C44.2363 91.6667 38.8196 90.5723 33.7502 88.3834C28.6807 86.1973 24.271 83.2292 20.521 79.4792C16.771 75.7292 13.8016 71.3195 11.6127 66.2501C9.42655 61.1806 8.3335 55.764 8.3335 50.0001C8.3335 44.2362 9.42655 38.8195 11.6127 33.7501C13.8016 28.6806 16.771 24.2709 20.521 20.5209C24.271 16.7709 28.6807 13.8029 33.7502 11.6167C38.8196 9.42786 44.2363 8.3334 50.0002 8.3334C55.7641 8.3334 61.1807 9.42786 66.2502 11.6167C71.3196 13.8029 75.7293 16.7709 79.4793 20.5209C83.2293 24.2709 86.1974 28.6806 88.3835 33.7501C90.5724 38.8195 91.6668 44.2362 91.6668 50.0001Z" fill="#393E46"/>
</svg>
