<svg width="36" height="35" viewBox="0 0 36 35" fill="none" xmlns="http://www.w3.org/2000/svg">
<path d="M18 24.7917C19.5471 24.7917 21.0308 24.1771 22.1248 23.0831C23.2188 21.9892 23.8333 20.5054 23.8333 18.9583H12.1667C12.1667 20.5054 12.7813 21.9892 13.8752 23.0831C14.9692 24.1771 16.4529 24.7917 18 24.7917ZM15.0833 14.5833C15.0833 14.9701 14.9297 15.341 14.6562 15.6145C14.3827 15.888 14.0118 16.0417 13.625 16.0417C13.2382 16.0417 12.8673 15.888 12.5938 15.6145C12.3203 15.341 12.1667 14.9701 12.1667 14.5833C12.1667 14.1966 12.3203 13.8256 12.5938 13.5521C12.8673 13.2786 13.2382 13.125 13.625 13.125C14.0118 13.125 14.3827 13.2786 14.6562 13.5521C14.9297 13.8256 15.0833 14.1966 15.0833 14.5833ZM22.375 16.0417C22.7618 16.0417 23.1327 15.888 23.4062 15.6145C23.6797 15.341 23.8333 14.9701 23.8333 14.5833C23.8333 14.1966 23.6797 13.8256 23.4062 13.5521C23.1327 13.2786 22.7618 13.125 22.375 13.125C21.9882 13.125 21.6173 13.2786 21.3438 13.5521C21.0703 13.8256 20.9167 14.1966 20.9167 14.5833C20.9167 14.9701 21.0703 15.341 21.3438 15.6145C21.6173 15.888 21.9882 16.0417 22.375 16.0417Z" fill="#393E46"/>
<path fill-rule="evenodd" clip-rule="evenodd" d="M32.5833 17.5001C32.5833 25.5545 26.0544 32.0834 18 32.0834C9.94563 32.0834 3.41667 25.5545 3.41667 17.5001C3.41667 9.44571 9.94563 2.91675 18 2.91675C26.0544 2.91675 32.5833 9.44571 32.5833 17.5001ZM29.6667 17.5001C29.6667 20.5943 28.4375 23.5617 26.2496 25.7497C24.0617 27.9376 21.0942 29.1667 18 29.1667C14.9058 29.1667 11.9384 27.9376 9.75043 25.7497C7.5625 23.5617 6.33334 20.5943 6.33334 17.5001C6.33334 14.4059 7.5625 11.4384 9.75043 9.2505C11.9384 7.06258 14.9058 5.83341 18 5.83341C21.0942 5.83341 24.0617 7.06258 26.2496 9.2505C28.4375 11.4384 29.6667 14.4059 29.6667 17.5001Z" fill="#FF8A00"/>
</svg>
