<svg width="36" height="35" viewBox="0 0 36 35" fill="none" xmlns="http://www.w3.org/2000/svg">
<path d="M30.2208 12.4979L28.4271 15.1958C29.2921 16.9211 29.7156 18.8341 29.6596 20.7633C29.6036 22.6925 29.0699 24.5777 28.1062 26.25H7.89375C6.64128 24.0772 6.1223 21.5587 6.41374 19.0678C6.70518 16.5769 7.79153 14.2462 9.51174 12.4212C11.2319 10.5963 13.4944 9.3742 15.9638 8.9362C18.4331 8.49819 20.9779 8.86757 23.2208 9.98956L25.9187 8.19581C23.1719 6.43446 19.9138 5.64519 16.6655 5.95426C13.4171 6.26332 10.3663 7.65286 8.00092 9.90062C5.63558 12.1484 4.0924 15.1245 3.61823 18.3528C3.14406 21.5812 3.7663 24.8753 5.38541 27.7083C5.63991 28.1491 6.00533 28.5157 6.44538 28.7715C6.88542 29.0273 7.38475 29.1636 7.89375 29.1666H28.0917C28.6056 29.1687 29.111 29.0349 29.5566 28.7788C30.0022 28.5227 30.3722 28.1534 30.6292 27.7083C31.9728 25.3807 32.6472 22.727 32.5777 20.0403C32.5082 17.3536 31.6976 14.7384 30.2354 12.4833L30.2208 12.4979Z" fill="#FF8A00"/>
<path d="M15.9438 22.4728C16.2146 22.744 16.5363 22.9591 16.8904 23.1059C17.2445 23.2527 17.624 23.3282 18.0073 23.3282C18.3906 23.3282 18.7701 23.2527 19.1242 23.1059C19.4783 22.9591 19.8 22.744 20.0708 22.4728L28.325 10.0916L15.9438 18.3457C15.6726 18.6166 15.4574 18.9383 15.3107 19.2924C15.1639 19.6464 15.0883 20.026 15.0883 20.4093C15.0883 20.7926 15.1639 21.1721 15.3107 21.5262C15.4574 21.8802 15.6726 22.2019 15.9438 22.4728Z" fill="#393E46"/>
</svg>
