<svg width="50" height="50" viewBox="0 0 50 50" fill="none" xmlns="http://www.w3.org/2000/svg">
<path d="M24.9998 41.6667C29.4201 41.6667 33.6593 39.9108 36.785 36.7852C39.9106 33.6596 41.6665 29.4204 41.6665 25.0001C41.6665 20.5798 39.9106 16.3406 36.785 13.215C33.6593 10.0894 29.4201 8.33341 24.9998 8.33341C20.5796 8.33341 16.3403 10.0894 13.2147 13.215C10.0891 16.3406 8.33317 20.5798 8.33317 25.0001C8.33317 29.4204 10.0891 33.6596 13.2147 36.7852C16.3403 39.9108 20.5796 41.6667 24.9998 41.6667ZM24.9998 45.8334C13.4936 45.8334 4.1665 36.5063 4.1665 25.0001C4.1665 13.4938 13.4936 4.16675 24.9998 4.16675C36.5061 4.16675 45.8332 13.4938 45.8332 25.0001C45.8332 36.5063 36.5061 45.8334 24.9998 45.8334ZM18.5207 27.4376L13.3165 25.8147C12.1915 25.4709 12.1853 24.6959 13.5686 24.1397L33.8457 16.3063C35.0228 15.8272 35.6894 16.4334 35.3082 17.9522L31.8561 34.2438C31.6144 35.4042 30.9165 35.6813 29.9478 35.1459L24.6332 31.2126L22.1561 33.6042C21.9019 33.8501 21.6957 34.0605 21.304 34.1126C20.9144 34.1667 20.5936 34.0501 20.3582 33.4042L18.5457 27.423L18.5207 27.4376Z" fill="#FF8A00"/>
</svg>
