<svg width="36" height="35" viewBox="0 0 36 35" fill="none" xmlns="http://www.w3.org/2000/svg">
<path d="M22.375 5.83325C25.4692 5.83325 28.4367 7.06242 30.6246 9.25034C32.8125 11.4383 34.0417 14.4057 34.0417 17.4999C34.0417 20.5941 32.8125 23.5616 30.6246 25.7495C28.4367 27.9374 25.4692 29.1666 22.375 29.1666C19.2808 29.1666 16.3133 27.9374 14.1254 25.7495C11.9375 23.5616 10.7083 20.5941 10.7083 17.4999C10.7083 14.4057 11.9375 11.4383 14.1254 9.25034C16.3133 7.06242 19.2808 5.83325 22.375 5.83325ZM22.375 8.74992C20.0544 8.74992 17.8288 9.67179 16.1878 11.3127C14.5469 12.9537 13.625 15.1793 13.625 17.4999C13.625 19.8206 14.5469 22.0462 16.1878 23.6871C17.8288 25.328 20.0544 26.2499 22.375 26.2499C24.6956 26.2499 26.9212 25.328 28.5622 23.6871C30.2031 22.0462 31.125 19.8206 31.125 17.4999C31.125 15.1793 30.2031 12.9537 28.5622 11.3127C26.9212 9.67179 24.6956 8.74992 22.375 8.74992ZM20.9167 11.6666H23.1042V17.1791L26.5021 20.577L24.9562 22.1228L20.9167 18.0833V11.6666ZM3.41666 26.2499C3.02989 26.2499 2.65895 26.0963 2.38546 25.8228C2.11197 25.5493 1.95833 25.1784 1.95833 24.7916C1.95833 24.4048 2.11197 24.0339 2.38546 23.7604C2.65895 23.4869 3.02989 23.3333 3.41666 23.3333H9.00208C9.45416 24.3687 10.0375 25.3458 10.7083 26.2499H3.41666ZM4.875 18.9583C4.48822 18.9583 4.11729 18.8046 3.8438 18.5311C3.57031 18.2576 3.41666 17.8867 3.41666 17.4999C3.41666 17.1131 3.57031 16.7422 3.8438 16.4687C4.11729 16.1952 4.48822 16.0416 4.875 16.0416H7.86458L7.79166 17.4999L7.86458 18.9583H4.875ZM6.33333 11.6666C5.94655 11.6666 5.57562 11.5129 5.30213 11.2394C5.02864 10.966 4.875 10.595 4.875 10.2083C4.875 9.82148 5.02864 9.45055 5.30213 9.17705C5.57562 8.90356 5.94655 8.74992 6.33333 8.74992H10.7083C10.0375 9.65409 9.45416 10.6312 9.00208 11.6666H6.33333Z" fill="#FF8A00"/>
<path d="M20.9167 11.6667V18.2292L24.5625 22.6042L27.4792 20.4167L24.5625 17.5001V11.6667H20.9167Z" fill="#393E46"/>
</svg>
