<svg width="36" height="35" viewBox="0 0 36 35" fill="none" xmlns="http://www.w3.org/2000/svg">
<path d="M18 2.91675C17.0318 2.91644 16.0962 3.26641 15.3658 3.90204C14.6355 4.53768 14.1598 5.41607 14.0265 6.37506C13.8932 7.33404 14.1113 8.30887 14.6406 9.11959C15.1699 9.93031 15.9747 10.5222 16.9062 10.7859V16.4063C16.9062 16.6964 17.0215 16.9746 17.2266 17.1797C17.4317 17.3848 17.7099 17.5001 18 17.5001C18.2901 17.5001 18.5683 17.3848 18.7734 17.1797C18.9785 16.9746 19.0938 16.6964 19.0938 16.4063V10.7859C20.0233 10.5201 20.8255 9.92767 21.353 9.11747C21.8805 8.30728 22.0976 7.33386 21.9645 6.3763C21.8314 5.41875 21.3571 4.54145 20.6286 3.90581C19.9002 3.27018 18.9668 2.91895 18 2.91675ZM8.52083 5.83342C7.5539 5.83342 6.62657 6.21753 5.94284 6.90126C5.25911 7.58498 4.875 8.51231 4.875 9.47925V26.9792C4.875 27.9462 5.25911 28.8735 5.94284 29.5572C6.62657 30.241 7.5539 30.6251 8.52083 30.6251C9.48777 30.6251 10.4151 30.241 11.0988 29.5572C11.7826 28.8735 12.1667 27.9462 12.1667 26.9792V21.8751H14.3542V26.9792C14.3542 27.9462 14.7383 28.8735 15.422 29.5572C16.1057 30.241 17.0331 30.6251 18 30.6251C18.9669 30.6251 19.8943 30.241 20.578 29.5572C21.2617 28.8735 21.6458 27.9462 21.6458 26.9792V21.8751H28.2083C28.9819 21.8751 29.7237 21.5678 30.2707 21.0208C30.8177 20.4738 31.125 19.732 31.125 18.9584V9.47925C31.125 8.51231 30.7409 7.58498 30.0572 6.90126C29.3734 6.21753 28.4461 5.83342 27.4792 5.83342C26.5122 5.83342 25.5849 6.21753 24.9012 6.90126C24.2174 7.58498 23.8333 8.51231 23.8333 9.47925V14.5834H20.5521V16.7709H26.0208V9.47925C26.0208 9.09247 26.1745 8.72154 26.448 8.44805C26.7215 8.17456 27.0924 8.02092 27.4792 8.02092C27.8659 8.02092 28.2369 8.17456 28.5104 8.44805C28.7839 8.72154 28.9375 9.09247 28.9375 9.47925V18.9584C28.9375 19.1518 28.8607 19.3373 28.7239 19.474C28.5872 19.6108 28.4017 19.6876 28.2083 19.6876H19.4583V26.9792C19.4583 27.366 19.3047 27.737 19.0312 28.0104C18.7577 28.2839 18.3868 28.4376 18 28.4376C17.6132 28.4376 17.2423 28.2839 16.9688 28.0104C16.6953 27.737 16.5417 27.366 16.5417 26.9792V19.6876H9.97917V26.9792C9.97917 27.366 9.82552 27.737 9.55203 28.0104C9.27854 28.2839 8.90761 28.4376 8.52083 28.4376C8.13406 28.4376 7.76313 28.2839 7.48964 28.0104C7.21615 27.737 7.0625 27.366 7.0625 26.9792V9.47925C7.0625 9.09247 7.21615 8.72154 7.48964 8.44805C7.76313 8.17456 8.13406 8.02092 8.52083 8.02092C8.90761 8.02092 9.27854 8.17456 9.55203 8.44805C9.82552 8.72154 9.97917 9.09247 9.97917 9.47925V16.7709H15.4479V14.5834H12.1667V9.47925C12.1667 8.51231 11.7826 7.58498 11.0988 6.90126C10.4151 6.21753 9.48777 5.83342 8.52083 5.83342Z" fill="#FF8A00"/>
<circle cx="18" cy="7.29175" r="4.375" fill="#393E46"/>
</svg>
