<svg width="100" height="100" viewBox="0 0 100 100" fill="none" xmlns="http://www.w3.org/2000/svg">
<path d="M45.8333 66.6666H54.1667V49.1666L60.8333 55.8333L66.6667 49.9999L50 33.3333L33.3333 49.9999L39.1667 55.8333L45.8333 49.1666V66.6666ZM50 91.6666C44.2361 91.6666 38.8195 90.5721 33.75 88.3833C28.6806 86.1971 24.2708 83.2291 20.5208 79.4791C16.7708 75.7291 13.8028 71.3194 11.6167 66.2499C9.42778 61.1805 8.33334 55.7638 8.33334 49.9999C8.33334 44.236 9.42778 38.8194 11.6167 33.7499C13.8028 28.6805 16.7708 24.2708 20.5208 20.5208C24.2708 16.7708 28.6806 13.8013 33.75 11.6124C38.8195 9.42631 44.2361 8.33325 50 8.33325C55.7639 8.33325 61.1806 9.42631 66.25 11.6124C71.3195 13.8013 75.7292 16.7708 79.4792 20.5208C83.2292 24.2708 86.1972 28.6805 88.3833 33.7499C90.5722 38.8194 91.6667 44.236 91.6667 49.9999C91.6667 55.7638 90.5722 61.1805 88.3833 66.2499C86.1972 71.3194 83.2292 75.7291 79.4792 79.4791C75.7292 83.2291 71.3195 86.1971 66.25 88.3833C61.1806 90.5721 55.7639 91.6666 50 91.6666Z" fill="#FF8A00"/>
</svg>
