<svg width="50" height="50" viewBox="0 0 50 50" fill="none" xmlns="http://www.w3.org/2000/svg">
<path d="M16.5939 12.9209C16.2067 12.8646 15.8119 12.9425 15.4752 13.1417H15.446C14.6648 13.6001 13.9606 14.1772 13.3606 14.8563C12.8606 15.4334 12.5898 16.0167 12.5189 16.5792C12.4773 16.9126 12.5064 17.2501 12.6043 17.5688L12.6418 17.5897C13.2043 19.2417 13.9377 20.8313 14.8335 22.3272C15.9886 24.4282 17.4101 26.3713 19.0627 28.1084L19.1127 28.1792L19.1918 28.2376L19.2398 28.2938L19.2981 28.3438C21.0413 30.0014 22.989 31.4296 25.0939 32.5938C27.5002 33.9042 28.9606 34.523 29.8377 34.7813V34.7938C30.0939 34.873 30.3273 34.9084 30.5627 34.9084C31.3096 34.8532 32.0166 34.5496 32.571 34.0459C33.2481 33.4459 33.821 32.7397 34.2668 31.9542V31.9397C34.6856 31.148 34.5439 30.4022 33.9398 29.8959C32.7262 28.8356 31.414 27.8938 30.021 27.0834C29.0877 26.5772 28.1398 26.8834 27.7564 27.3959L26.9377 28.4292C26.5168 28.9417 25.7543 28.8709 25.7543 28.8709L25.7335 28.8834C20.0439 27.4313 18.5252 21.6709 18.5252 21.6709C18.5252 21.6709 18.4543 20.8876 18.9814 20.4876L20.0064 19.6626C20.4981 19.2626 20.8398 18.3167 20.3127 17.3834C19.5077 15.9892 18.5678 14.6773 17.5064 13.4667C17.2749 13.1818 16.9503 12.9878 16.5898 12.9188L16.5939 12.9209ZM26.2085 10.4167C25.9322 10.4167 25.6673 10.5265 25.4719 10.7218C25.2766 10.9172 25.1668 11.1821 25.1668 11.4584C25.1668 11.7347 25.2766 11.9996 25.4719 12.195C25.6673 12.3903 25.9322 12.5001 26.2085 12.5001C28.8418 12.5001 31.0293 13.3605 32.7606 15.0105C33.6502 15.9126 34.3439 16.9813 34.7981 18.1522C35.2543 19.3251 35.4627 20.5772 35.4085 21.8313C35.3969 22.1076 35.4955 22.3772 35.6827 22.5807C35.8698 22.7843 36.1302 22.9051 36.4064 22.9167C36.6827 22.9283 36.9523 22.8297 37.1558 22.6426C37.3594 22.4554 37.4802 22.1951 37.4918 21.9188C37.5565 20.3761 37.3004 18.8367 36.7398 17.398C36.1767 15.9524 35.323 14.6378 34.2314 13.5355L34.2106 13.5147C32.0627 11.4626 29.346 10.4167 26.2085 10.4167Z" fill="#FF8A00"/>
<path d="M26.1354 13.8417C25.8591 13.8417 25.5942 13.9514 25.3988 14.1468C25.2035 14.3421 25.0938 14.6071 25.0938 14.8833C25.0938 15.1596 25.2035 15.4246 25.3988 15.6199C25.5942 15.8153 25.8591 15.925 26.1354 15.925H26.1708C28.0708 16.0604 29.4542 16.6938 30.4229 17.7333C31.4167 18.8042 31.9312 20.1354 31.8917 21.7813C31.8853 22.0575 31.989 22.325 32.1798 22.5249C32.3707 22.7247 32.6331 22.8405 32.9094 22.8469C33.1856 22.8532 33.4531 22.7496 33.653 22.5587C33.8528 22.3679 33.9686 22.1054 33.975 21.8292C34.025 19.6688 33.3292 17.8042 31.95 16.3167V16.3125C30.5396 14.8 28.6042 14 26.275 13.8438L26.2396 13.8396L26.1354 13.8417Z" fill="#FF8A00"/>
<path d="M26.0956 17.3312C25.9562 17.3189 25.8158 17.3348 25.6827 17.378C25.5495 17.4212 25.4265 17.4907 25.3208 17.5825C25.2152 17.6743 25.1291 17.7864 25.0678 17.9122C25.0065 18.038 24.9711 18.1749 24.9638 18.3146C24.9565 18.4544 24.9775 18.5942 25.0254 18.7256C25.0734 18.8571 25.1473 18.9776 25.2428 19.0799C25.3384 19.1821 25.4535 19.2641 25.5814 19.3209C25.7093 19.3777 25.8474 19.4081 25.9873 19.4103C26.8581 19.4562 27.4144 19.7187 27.7644 20.0708C28.1165 20.4249 28.379 20.9937 28.4269 21.8833C28.4295 22.0231 28.4602 22.1609 28.5172 22.2886C28.5742 22.4162 28.6563 22.5311 28.7586 22.6264C28.861 22.7216 28.9815 22.7953 29.1129 22.843C29.2443 22.8907 29.384 22.9115 29.5236 22.9041C29.6632 22.8967 29.7999 22.8612 29.9255 22.7999C30.0512 22.7385 30.1632 22.6525 30.2548 22.5469C30.3465 22.4414 30.416 22.3184 30.4592 22.1854C30.5023 22.0524 30.5183 21.9121 30.506 21.7728C30.4394 20.5228 30.0477 19.4187 29.2456 18.6062C28.4394 17.7937 27.3415 17.3978 26.0956 17.3312Z" fill="#FF8A00"/>
<path fill-rule="evenodd" clip-rule="evenodd" d="M14.723 4.96663C21.3523 3.48476 28.227 3.48476 34.8563 4.96663L35.5626 5.12288C37.5005 5.55611 39.2804 6.51814 40.7044 7.90209C42.1284 9.28604 43.1409 11.0377 43.6293 12.9625C45.312 19.5935 45.312 26.5398 43.6293 33.1708C43.1409 35.0955 42.1284 36.8472 40.7044 38.2312C39.2804 39.6151 37.5005 40.5771 35.5626 41.0104L34.8543 41.1666C30.7022 42.0951 26.4417 42.445 22.1938 42.2062L16.6668 47.152C16.4584 47.3386 16.2038 47.4658 15.9294 47.5204C15.6551 47.575 15.3712 47.5549 15.1073 47.4624C14.8434 47.3698 14.6091 47.208 14.429 46.994C14.2489 46.7801 14.1296 46.5216 14.0834 46.2458L13.1688 40.7833C11.4151 40.2376 9.83053 39.2512 8.56669 37.9185C7.30286 36.5857 6.40196 34.9511 5.95009 33.1708C4.26729 26.5398 4.26729 19.5935 5.95009 12.9625C6.43847 11.0377 7.45092 9.28604 8.87496 7.90209C10.299 6.51814 12.0788 5.55611 14.0168 5.12288L14.723 4.96663ZM34.1751 8.01454C27.9944 6.63289 21.5849 6.63289 15.4043 8.01454L14.6959 8.17287C13.3224 8.48049 12.0611 9.16278 11.0519 10.144C10.0428 11.1252 9.32532 12.3669 8.97926 13.7312C7.4245 19.8577 7.4245 26.2755 8.97926 32.402C9.32549 33.7666 10.0432 35.0085 11.0528 35.9897C12.0623 36.971 13.3241 37.6531 14.698 37.9604L14.8855 38.002C15.1888 38.0699 15.465 38.2266 15.6788 38.4523C15.8925 38.6779 16.0342 38.9622 16.0855 39.2687L16.698 42.9312L20.598 39.4416C20.7537 39.3019 20.936 39.1948 21.1339 39.1268C21.3318 39.0588 21.5413 39.0313 21.7501 39.0458C25.9148 39.3412 30.1003 39.0289 34.1751 38.1187L34.8813 37.9604C36.2552 37.6531 37.517 36.971 38.5266 35.9897C39.5361 35.0085 40.2539 33.7666 40.6001 32.402C42.1543 26.277 42.1543 19.8583 40.6001 13.7312C40.2539 12.3666 39.5361 11.1247 38.5266 10.1435C37.517 9.16229 36.2552 8.48015 34.8813 8.17287L34.1751 8.01454Z" fill="#FF8A00"/>
</svg>

