<svg width="45" height="32" viewBox="0 0 45 32" fill="none" xmlns="http://www.w3.org/2000/svg">
    <path d="M3.625 0.375C1.96815 0.375 0.625 1.71815 0.625 3.375V3.625C0.625 5.28185 1.96815 6.625 3.625 6.625H41.375C43.0319 6.625 44.375 5.28185 44.375 3.625V3.375C44.375 1.71815 43.0319 0.375 41.375 0.375H3.625ZM3.625 12.875C1.96815 12.875 0.625 14.2181 0.625 15.875V16.125C0.625 17.7819 1.96815 19.125 3.625 19.125H41.375C43.0319 19.125 44.375 17.7819 44.375 16.125V15.875C44.375 14.2181 43.0319 12.875 41.375 12.875H3.625ZM3.625 25.375C1.96815 25.375 0.625 26.7181 0.625 28.375V28.625C0.625 30.2819 1.96815 31.625 3.625 31.625H41.375C43.0319 31.625 44.375 30.2819 44.375 28.625V28.375C44.375 26.7181 43.0319 25.375 41.375 25.375H3.625Z" fill="white"/>
</svg>
