<svg width="40" height="40" viewBox="0 0 39 51" fill="none" xmlns="http://www.w3.org/2000/svg">
<path fill-rule="evenodd" clip-rule="evenodd" d="M0 5.27778C0 2.36294 2.32812 0 5.2 0C8.07188 0 10.4 2.36294 10.4 5.27778V6.59722H13C13 2.95368 15.9101 0 19.5 0C23.0898 0 26 2.95368 26 6.59722H28.6V5.27778C28.6 2.36294 30.9281 0 33.8 0C36.6719 0 39 2.36294 39 5.27778V10.5556C39 13.4704 36.6719 15.8333 33.8 15.8333C30.9281 15.8333 28.6 13.4704 28.6 10.5556V9.23611H26C26 12.4278 23.7669 15.0901 20.8 15.7014V40.9028H28.6V39.5833C28.6 36.6685 30.9281 34.3056 33.8 34.3056C36.6719 34.3056 39 36.6685 39 39.5833V44.8611C39 47.7759 36.6719 50.1389 33.8 50.1389C30.9281 50.1389 28.6 47.7759 28.6 44.8611V43.5417H10.4V44.8611C10.4 47.7759 8.07188 50.1389 5.2 50.1389C2.32812 50.1389 0 47.7759 0 44.8611V39.5833C0 36.6685 2.32812 34.3056 5.2 34.3056C8.07188 34.3056 10.4 36.6685 10.4 39.5833V40.9028H18.2V15.7014C15.2331 15.0901 13 12.4278 13 9.23611H10.4V10.5556C10.4 13.4704 8.07188 15.8333 5.2 15.8333C2.32812 15.8333 0 13.4704 0 10.5556V5.27778ZM7.8 5.27778V10.5556C7.8 12.013 6.63594 13.1944 5.2 13.1944C3.76406 13.1944 2.6 12.013 2.6 10.5556V5.27778C2.6 3.82036 3.76406 2.63889 5.2 2.63889C6.63594 2.63889 7.8 3.82036 7.8 5.27778ZM23.4 6.59722V9.23611C23.4 11.4222 21.6539 13.1944 19.5 13.1944C17.3461 13.1944 15.6 11.4222 15.6 9.23611V6.59722C15.6 4.4111 17.3461 2.63889 19.5 2.63889C21.6539 2.63889 23.4 4.4111 23.4 6.59722ZM36.4 10.5556V5.27778C36.4 3.82036 35.2359 2.63889 33.8 2.63889C32.3641 2.63889 31.2 3.82036 31.2 5.27778V10.5556C31.2 12.013 32.3641 13.1944 33.8 13.1944C35.2359 13.1944 36.4 12.013 36.4 10.5556ZM36.4 39.5833V44.8611C36.4 46.3185 35.2359 47.5 33.8 47.5C32.3641 47.5 31.2 46.3185 31.2 44.8611V39.5833C31.2 38.1259 32.3641 36.9444 33.8 36.9444C35.2359 36.9444 36.4 38.1259 36.4 39.5833ZM7.8 44.8611V39.5833C7.8 38.1259 6.63594 36.9444 5.2 36.9444C3.76406 36.9444 2.6 38.1259 2.6 39.5833V44.8611C2.6 46.3185 3.76406 47.5 5.2 47.5C6.63594 47.5 7.8 46.3185 7.8 44.8611Z" fill="#FF8A00"/>
</svg>
