<svg width="40" height="40" viewBox="0 0 50 51" fill="none" xmlns="http://www.w3.org/2000/svg">
<path d="M12.5 39.7222V40.816C12.5 41.684 12.2049 42.4132 11.6146 43.0035C11.0243 43.5937 10.2778 43.8889 9.375 43.8889C8.50694 43.8889 7.76944 43.5847 7.1625 42.9764C6.55417 42.3694 6.25 41.6319 6.25 40.7639V25.1389L10.625 12.6389C10.8333 12.0139 11.2069 11.5104 11.7458 11.1285C12.2833 10.7465 12.8819 10.5555 13.5417 10.5555H36.4583C37.1181 10.5555 37.7174 10.7465 38.2563 11.1285C38.7938 11.5104 39.1667 12.0139 39.375 12.6389L43.75 25.1389V40.816C43.75 41.684 43.4549 42.4132 42.8646 43.0035C42.2743 43.5937 41.5278 43.8889 40.625 43.8889C39.7569 43.8889 39.0194 43.5847 38.4125 42.9764C37.8042 42.3694 37.5 41.6319 37.5 40.7639V39.7222H12.5ZM12.0833 20.9722H37.9167L35.7292 14.7222H14.2708L12.0833 20.9722ZM15.625 33.4722C16.4931 33.4722 17.2306 33.168 17.8375 32.5597C18.4458 31.9528 18.75 31.2153 18.75 30.3472C18.75 29.4792 18.4458 28.7417 17.8375 28.1347C17.2306 27.5264 16.4931 27.2222 15.625 27.2222C14.7569 27.2222 14.0194 27.5264 13.4125 28.1347C12.8042 28.7417 12.5 29.4792 12.5 30.3472C12.5 31.2153 12.8042 31.9528 13.4125 32.5597C14.0194 33.168 14.7569 33.4722 15.625 33.4722ZM34.375 33.4722C35.2431 33.4722 35.9806 33.168 36.5875 32.5597C37.1958 31.9528 37.5 31.2153 37.5 30.3472C37.5 29.4792 37.1958 28.7417 36.5875 28.1347C35.9806 27.5264 35.2431 27.2222 34.375 27.2222C33.5069 27.2222 32.7694 27.5264 32.1625 28.1347C31.5542 28.7417 31.25 29.4792 31.25 30.3472C31.25 31.2153 31.5542 31.9528 32.1625 32.5597C32.7694 33.168 33.5069 33.4722 34.375 33.4722Z" fill="#FF8A00"/>
</svg>
