<svg width="40" height="40" viewBox="0 0 50 51" fill="none" xmlns="http://www.w3.org/2000/svg">
<path d="M42.4583 17.9931L39.8958 21.8473C41.1316 24.312 41.7366 27.0449 41.6566 29.8009C41.5766 32.5569 40.8141 35.2501 39.4375 37.639H10.5625C8.77322 34.535 8.03182 30.9371 8.44816 27.3787C8.8645 23.8202 10.4164 20.4907 12.8739 17.8836C15.3313 15.2765 18.5634 13.5307 22.0911 12.905C25.6187 12.2793 29.2541 12.807 32.4583 14.4098L36.3125 11.8473C32.3885 9.33108 27.734 8.20356 23.0935 8.64508C18.453 9.08661 14.0946 11.0717 10.7156 14.2827C7.3365 17.4938 5.13196 21.7454 4.45457 26.3573C3.77719 30.9693 4.6661 35.6752 6.97912 39.7223C7.34268 40.352 7.86472 40.8757 8.49335 41.2412C9.12198 41.6066 9.83531 41.8012 10.5625 41.8056H39.4166C40.1508 41.8085 40.8728 41.6174 41.5093 41.2516C42.1459 40.8857 42.6745 40.3582 43.0416 39.7223C44.9612 36.3971 45.9245 32.6062 45.8252 28.768C45.7259 24.9299 44.568 21.1938 42.4791 17.9723L42.4583 17.9931Z" fill="#FF8A00"/>
<path d="M22.0626 32.243C22.4496 32.6304 22.9091 32.9378 23.4149 33.1475C23.9208 33.3571 24.463 33.4651 25.0105 33.4651C25.5581 33.4651 26.1003 33.3571 26.6061 33.1475C27.1119 32.9378 27.5715 32.6304 27.9584 32.243L39.7501 14.5555L22.0626 26.3472C21.6752 26.7342 21.3679 27.1937 21.1582 27.6995C20.9485 28.2054 20.8406 28.7476 20.8406 29.2951C20.8406 29.8427 20.9485 30.3849 21.1582 30.8907C21.3679 31.3965 21.6752 31.8561 22.0626 32.243Z" fill="#FF8A00"/>
</svg>
