<svg width="30" height="30" viewBox="0 0 50 51" fill="none" xmlns="http://www.w3.org/2000/svg">
<path d="M25 4.30554C23.6168 4.3051 22.2802 4.80505 21.2369 5.71311C20.1936 6.62116 19.514 7.876 19.3236 9.24598C19.1331 10.616 19.4448 12.0086 20.2009 13.1667C20.9571 14.3249 22.1067 15.1704 23.4375 15.5472V23.5764C23.4375 23.9908 23.6021 24.3882 23.8951 24.6812C24.1882 24.9743 24.5856 25.1389 25 25.1389C25.4144 25.1389 25.8118 24.9743 26.1049 24.6812C26.3979 24.3882 26.5625 23.9908 26.5625 23.5764V15.5472C27.8904 15.1675 29.0365 14.3211 29.79 13.1637C30.5435 12.0063 30.8538 10.6157 30.6636 9.24777C30.4735 7.87983 29.7958 6.62655 28.7552 5.71849C27.7146 4.81044 26.3811 4.30869 25 4.30554ZM11.4583 8.47221C10.077 8.47221 8.75224 9.02094 7.77549 9.99769C6.79873 10.9744 6.25 12.2992 6.25 13.6805V38.6805C6.25 40.0619 6.79873 41.3866 7.77549 42.3634C8.75224 43.3401 10.077 43.8889 11.4583 43.8889C12.8397 43.8889 14.1644 43.3401 15.1412 42.3634C16.1179 41.3866 16.6667 40.0619 16.6667 38.6805V31.3889H19.7917V38.6805C19.7917 40.0619 20.3404 41.3866 21.3172 42.3634C22.2939 43.3401 23.6187 43.8889 25 43.8889C26.3813 43.8889 27.7061 43.3401 28.6828 42.3634C29.6596 41.3866 30.2083 40.0619 30.2083 38.6805V31.3889H39.5833C40.6884 31.3889 41.7482 30.9499 42.5296 30.1685C43.311 29.3871 43.75 28.3273 43.75 27.2222V13.6805C43.75 12.2992 43.2013 10.9744 42.2245 9.99769C41.2478 9.02094 39.923 8.47221 38.5417 8.47221C37.1603 8.47221 35.8356 9.02094 34.8588 9.99769C33.8821 10.9744 33.3333 12.2992 33.3333 13.6805V20.9722H28.6458V24.0972H36.4583V13.6805C36.4583 13.128 36.6778 12.5981 37.0685 12.2074C37.4592 11.8167 37.9891 11.5972 38.5417 11.5972C39.0942 11.5972 39.6241 11.8167 40.0148 12.2074C40.4055 12.5981 40.625 13.128 40.625 13.6805V27.2222C40.625 27.4985 40.5153 27.7634 40.3199 27.9588C40.1246 28.1541 39.8596 28.2639 39.5833 28.2639H27.0833V38.6805C27.0833 39.2331 26.8638 39.763 26.4731 40.1537C26.0824 40.5444 25.5525 40.7639 25 40.7639C24.4475 40.7639 23.9176 40.5444 23.5269 40.1537C23.1362 39.763 22.9167 39.2331 22.9167 38.6805V28.2639H13.5417V38.6805C13.5417 39.2331 13.3222 39.763 12.9315 40.1537C12.5408 40.5444 12.0109 40.7639 11.4583 40.7639C10.9058 40.7639 10.3759 40.5444 9.98519 40.1537C9.59449 39.763 9.375 39.2331 9.375 38.6805V13.6805C9.375 13.128 9.59449 12.5981 9.98519 12.2074C10.3759 11.8167 10.9058 11.5972 11.4583 11.5972C12.0109 11.5972 12.5408 11.8167 12.9315 12.2074C13.3222 12.5981 13.5417 13.128 13.5417 13.6805V24.0972H21.3542V20.9722H16.6667V13.6805C16.6667 12.2992 16.1179 10.9744 15.1412 9.99769C14.1644 9.02094 12.8397 8.47221 11.4583 8.47221Z" fill="#FF8A00"/>
<circle cx="25" cy="10.5555" r="6.25" fill="#FF8A00"/>
</svg>
